<?xml version="1.0" encoding="utf-8"?>
<!-- Generator: Adobe Illustrator 24.1.2, SVG Export Plug-In . SVG Version: 6.00 Build 0)  -->
<svg version="1.1" id="Layer_1" xmlns="http://www.w3.org/2000/svg" xmlns:xlink="http://www.w3.org/1999/xlink" x="0px" y="0px"
	 viewBox="0 0 337 320.1" style="enable-background:new 0 0 337 320.1;" xml:space="preserve">
<style type="text/css">
	.st0{clip-path:url(#SVGID_2_);}
	.st1{clip-path:url(#SVGID_4_);}
	.st2{fill:url(#SVGID_5_);}
	.st3{fill:#FFFFFF;}
</style>
<g id="a77ee256-54c5-4cd3-b540-b099b0a1566f">
	<g id="f2dc5883-f6d2-4cec-b6ef-3848ffad6c77">
		<g>
			<defs>
				<path id="SVGID_1_" d="M25.1,0h286.8C325.8,0,337,11.2,337,25.1v269.8c0,13.9-11.2,25.1-25.1,25.1H25.1
					C11.2,320,0,308.8,0,294.9V25.1C0,11.2,11.2,0,25.1,0z"/>
			</defs>
			<clipPath id="SVGID_2_">
				<use xlink:href="#SVGID_1_"  style="overflow:visible;"/>
			</clipPath>
			<g class="st0">
				<g>
					<defs>
						<rect id="SVGID_3_" y="1" width="337" height="319"/>
					</defs>
					<clipPath id="SVGID_4_">
						<use xlink:href="#SVGID_3_"  style="overflow:visible;"/>
					</clipPath>
					<g class="st1">
						
							<image style="overflow:visible;enable-background:new    ;" width="942" height="559" xlink:href="49106051.png"  transform="matrix(0.571 0 0 0.5674 -107.7709 1.9655)">
						</image>
					</g>
				</g>
				
					<linearGradient id="SVGID_5_" gradientUnits="userSpaceOnUse" x1="168.5" y1="-63.4932" x2="168.5" y2="379.2594" gradientTransform="matrix(1 0 0 -1 0 319.8898)">
					<stop  offset="0" style="stop-color:#ED7514"/>
					<stop  offset="0.1403" style="stop-color:#ED7514"/>
					<stop  offset="1" style="stop-color:#ED7514"/>
				</linearGradient>
				<rect y="0" class="st2" width="337" height="320"/>
				<path class="st3" d="M520.8,272.7c1.5,1.6,2.2,3.7,2.1,5.8v12.7h-5.3l0-13.2c0.1-0.8-0.2-1.7-0.7-2.4c-0.5-0.6-1.3-0.8-2.1-0.8
					h-2.6c-0.2,0.7-0.3,1.4-0.4,2.1c-0.1,0.7-0.1,1.4-0.1,2.1v5.9c0,1.2-0.2,2.4-0.7,3.5c-0.5,1-1.2,1.7-2.1,2.2
					c-1,0.5-2.2,0.8-3.3,0.8c-0.9,0-1.7-0.1-2.6-0.2v-4.1c0.5,0,0.9,0,1.1,0c1.7,0,2.5-0.9,2.5-2.6v-5c0-0.8,0.1-1.6,0.3-2.5
					c0.2-0.8,0.5-1.5,0.9-2.2h-3.2v-4.2h10.4C517.4,270.8,519.4,271.4,520.8,272.7z"/>
				<path class="st3" d="M529.2,275H526v-4.2h8.6v11.7h-5.4V275z"/>
				<path class="st3" d="M541.1,279.7c0.1-0.9,0.3-1.8,0.7-2.6c0.3-0.7,0.7-1.4,1.2-2c0.1-0.1,0.1-0.1,0.2-0.2l0-0.1
					c-0.5,0.1-1.1,0.2-1.6,0.4c-0.5,0.1-1.1,0.3-1.6,0.5l-1.1-3.9c1.5-0.5,3.1-0.9,4.6-1.2c1.7-0.3,3.3-0.4,5-0.5
					c3.1,0,5.5,0.8,7.1,2.4c1.6,1.6,2.4,3.9,2.5,7v11.6h-9v-4.2h3.6l0-8.2c0.1-1.1-0.2-2.2-0.8-3.2c-0.5-0.7-1.4-1.2-2.3-1.1
					c-0.9,0-1.7,0.4-2.3,1.1c-0.6,1-1,2.1-1,3.3l-1.2,12.2h-5.3L541.1,279.7z"/>
				<path class="st3" d="M574.2,282.2l4.6,6.6v2.4h-16.2v-4.2h9.3l-11-16.3h6l4.2,6.7l3.1-6.7h6L574.2,282.2z"/>
				<path class="st3" d="M600.2,270.8v11.7c0.1,1.8-0.4,3.5-1.2,5c-0.8,1.4-2,2.5-3.5,3.1c-1.6,0.7-3.4,1.1-5.2,1.1
					c-2.8,0-5.5-0.5-8.1-1.5l1.1-3.9c1.5,0.6,3.1,1,4.7,1.3c-0.4-0.4-0.8-0.8-1.1-1.3c-0.3-0.5-0.5-1-0.6-1.6l-3.2-13.9h5.4l3,14.5
					c0.1,0.7,0.4,1.4,0.7,2.1c0.8-0.3,1.6-0.9,2-1.7c0.5-0.9,0.7-1.8,0.7-2.8v-12H600.2z"/>
				<path class="st3" d="M630,272.7c1.5,1.6,2.2,3.7,2.1,5.8v12.7h-5.3l0-13.2c0.1-0.8-0.2-1.7-0.7-2.4c-0.5-0.6-1.3-0.8-2.1-0.8
					h-2.6c-0.2,0.7-0.3,1.4-0.4,2.1c-0.1,0.7-0.1,1.4-0.1,2.1v5.9c0,1.2-0.2,2.4-0.7,3.5c-0.5,1-1.2,1.7-2.1,2.2
					c-1,0.5-2.2,0.8-3.3,0.8c-0.9,0-1.7-0.1-2.6-0.2v-4.1c0.5,0,0.9,0,1.1,0c1.7,0,2.5-0.9,2.5-2.6v-5c0-0.8,0.1-1.6,0.3-2.5
					c0.2-0.8,0.5-1.5,0.9-2.2h-3.2v-4.2h10.4C626.5,270.8,628.6,271.4,630,272.7z"/>
				<path class="st3" d="M653,270.8v4.2h-3.6v16.3H644V275h-8.7v-4.2H653z"/>
				<path class="st3" d="M658.2,275H655v-4.2h8.6v11.7h-5.4V275z"/>
				<path class="st3" d="M670.1,279.7c0.1-0.9,0.3-1.8,0.7-2.6c0.3-0.7,0.7-1.4,1.2-2c0.1-0.1,0.1-0.1,0.2-0.2l0-0.1
					c-0.5,0.1-1.1,0.2-1.6,0.4c-0.5,0.1-1.1,0.3-1.6,0.5l-1.1-3.9c1.5-0.5,3.1-0.9,4.6-1.2c1.7-0.3,3.3-0.4,5-0.5
					c3.1,0,5.5,0.8,7.1,2.4c1.6,1.6,2.4,3.9,2.5,7v11.6h-9v-4.2h3.6l0-8.2c0.1-1.1-0.2-2.2-0.8-3.2c-0.5-0.7-1.4-1.2-2.3-1.1
					c-0.9,0-1.7,0.4-2.3,1.1c-0.6,1-1,2.1-1,3.3l-1.2,12.2h-5.3L670.1,279.7z"/>
				<path class="st3" d="M707.3,274.2l-6.8,17.1h-5.7l6.7-16.3h-11V265h5.4v5.8h11.4V274.2z"/>
			</g>
		</g>
		<path class="st3" d="M75.1,173.1c-0.1-1.6,0.3-3.1,1.2-4.4h4.3c-0.2,1.3-0.3,2.5-0.3,3.8v7.6h-5.2V173.1z M86.9,166.9
			c0.1-0.9-0.2-1.7-0.8-2.3c-0.7-0.6-1.6-0.8-2.5-0.8h-8.5v-4.2h8.9c1.5,0,3.1,0.3,4.5,0.9c1.2,0.5,2.2,1.4,2.8,2.6
			c0.7,1.2,1,2.6,1,4.1v13h-5.4V166.9z"/>
		<path class="st3" d="M113.2,159.6v4.2h-3.6v16.3h-5.3v-16.3h-8.7v-4.2L113.2,159.6z"/>
		<path class="st3" d="M118.5,163.8h-3.2v-4.2h8.6v11.7h-5.4V163.8z"/>
		<path class="st3" d="M130.4,168.6c0.1-0.9,0.3-1.8,0.7-2.6c0.3-0.7,0.7-1.4,1.2-2c0.1-0.1,0.1-0.1,0.2-0.2l0-0.1
			c-0.5,0.1-1.1,0.2-1.6,0.4c-0.5,0.1-1.1,0.3-1.6,0.5l-1.1-3.9c1.5-0.5,3.1-0.9,4.6-1.2c1.7-0.3,3.3-0.4,5-0.5
			c3.1,0,5.5,0.8,7.1,2.4c1.6,1.6,2.4,3.9,2.5,7v11.6h-9v-4.2h3.6l0-8.2c0.1-1.1-0.2-2.2-0.8-3.2c-0.5-0.7-1.4-1.2-2.3-1.1
			c-0.9,0-1.7,0.4-2.3,1.1c-0.6,1-1,2.1-1,3.3l-1.2,12.2h-5.3L130.4,168.6z"/>
		<path class="st3" d="M167.6,163.1l-6.8,17.1h-5.7l6.7-16.3h-11v-9.9h5.4v5.8h11.4V163.1z"/>
		<path class="st3" d="M180.6,163.8h-1.8v-4.2h7.2v20.5h-5.4L180.6,163.8z"/>
		<path class="st3" d="M198.5,166.6c0.1-0.8-0.2-1.5-0.8-2.1c-0.6-0.5-1.4-0.8-2.2-0.7h-6.2v-4.2h6.6c1.5,0,2.9,0.3,4.3,0.9
			c1.1,0.5,2.1,1.4,2.7,2.5c0.7,1.2,1,2.5,0.9,3.9v13.3h-5.4V166.6z"/>
		<path class="st3" d="M216.3,176c1.2,0,2.4-0.5,3.3-1.3c0.8-1,1.2-2.3,1.2-3.6v-7.4h-11.9v-4.2h17.3V171c0,1.7-0.4,3.3-1.2,4.8
			c-0.8,1.3-2,2.4-3.4,3.1c-1.7,0.8-3.5,1.2-5.3,1.2L216.3,176z M209.1,172.9c-0.1-1.6,0.3-3.1,1.2-4.4h4.3
			c-0.2,1.3-0.4,2.5-0.3,3.8v14.9h-5.2V172.9z"/>
		<path class="st3" d="M233,163.8h-3.2v-4.2h8.6v11.7H233L233,163.8z"/>
		<path class="st3" d="M245,168.6c0.1-0.9,0.3-1.8,0.7-2.6c0.3-0.7,0.7-1.4,1.2-2c0.1-0.1,0.1-0.1,0.2-0.2l0-0.1
			c-0.5,0.1-1.1,0.2-1.6,0.4c-0.5,0.1-1.1,0.3-1.6,0.5l-1.1-3.9c1.5-0.5,3.1-0.9,4.6-1.2c1.7-0.3,3.3-0.4,5-0.5
			c3.1,0,5.5,0.8,7.1,2.4c1.6,1.6,2.4,3.9,2.5,7v11.6h-9v-4.2h3.6l0-8.2c0.1-1.1-0.2-2.2-0.8-3.2c-0.5-0.7-1.4-1.2-2.3-1.1
			c-0.9,0-1.7,0.4-2.3,1.1c-0.6,1-1,2.1-1,3.3l-1.2,12.2h-5.3L245,168.6z"/>
	</g>
</g>
</svg>
