<?xml version="1.0" encoding="utf-8"?>
<!-- Generator: Adobe Illustrator 24.1.2, SVG Export Plug-In . SVG Version: 6.00 Build 0)  -->
<svg version="1.1" id="bc7f8069-8a44-40f5-ae37-ea5741ef82aa"
	 xmlns="http://www.w3.org/2000/svg" xmlns:xlink="http://www.w3.org/1999/xlink" x="0px" y="0px" viewBox="0 0 1080 1920.4"
	 style="enable-background:new 0 0 1080 1920.4;" xml:space="preserve">
<style type="text/css">
	.st0{clip-path:url(#SVGID_2_);}
	.st1{fill: #0198dd;}
	.st2{fill-rule:evenodd;clip-rule:evenodd;fill:#FFFFFF;}
	.st3{fill-rule:evenodd;clip-rule:evenodd;fill:#226BB0;}
	.st4{fill-rule:evenodd;clip-rule:evenodd;fill:#FAEC31;}
	.st5{fill:#FFFFFF;}
	.st6{fill-rule:evenodd;clip-rule:evenodd;fill:#EB1C24;}
	.st7{fill-rule:evenodd;clip-rule:evenodd;fill:#016839;}
	.st8{opacity:0.72;enable-background:new    ;}
</style>
<g>
	<defs>
		<rect id="SVGID_1_" y="0.4" width="1080" height="1920"/>
	</defs>
	<clipPath id="SVGID_2_">
		<use xlink:href="#SVGID_1_"  style="overflow:visible;"/>
	</clipPath>
	<g class="st0">
		<rect class="st1" width="1080" height="1920"/>
		<path class="st2" d="M558.3-39C-88.4-39-612.6,485.2-612.6,1131.9c0,646.6,524.2,1170.9,1170.9,1170.9
			c646.6,0,1170.9-524.2,1170.9-1170.9C1729.1,485.2,1204.9-39,558.3-39z M558.3,2259.4c-622.7,0-1127.5-504.8-1127.5-1127.5
			C-569.3,509.1-64.5,4.3,558.3,4.3c622.7,0,1127.5,504.8,1127.5,1127.5C1685.8,1754.6,1181,2259.4,558.3,2259.4z"/>
		<path class="st2" d="M1723.5,1017.1c-14.4-148.7-57.3-293.3-126.4-425.7c-1.1-2.1-2.2-4.2-3.4-6.4c-2.8-5.4-5.7-10.7-8.6-16
			c-2.7-5-5.5-9.9-8.3-14.8c-1.4-2.4-2.7-4.8-4.1-7.2c-74.4-129.4-173.1-243.2-290.5-335.3c-3.1-2.5-6.3-4.8-9.4-7.3
			c-3.9-3-7.7-6-11.6-8.9C1174.1,130,1078.4,77,976.7,38.1c0,0-0.1,0-0.1,0c-8.5-3.2-17-6.4-25.6-9.5c-1.4-0.5-2.8-1-4.3-1.5
			c-7.1-2.5-14.3-5-21.5-7.3c-2.8-0.9-5.7-1.8-8.5-2.8c-5.8-1.9-11.5-3.7-17.3-5.4c-4.3-1.3-8.6-2.6-12.8-3.8
			c-4.4-1.3-8.7-2.5-13.1-3.8c-5.7-1.6-11.5-3.2-17.3-4.7c-3-0.8-5.9-1.6-8.9-2.3c-7.2-1.8-14.5-3.6-21.8-5.3
			c-1.6-0.4-3.1-0.7-4.7-1.1c-8.8-2-17.6-3.9-26.4-5.7c-0.1,0-0.3-0.1-0.4-0.1C687.5-37.1,578.3-44,469.8-35.7
			c-5.1,0.4-10.2,0.9-15.3,1.3c-3.7,0.3-7.4,0.6-11,1C294.8-19,150.3,23.9,17.8,93c-2.2,1.2-4.5,2.4-6.7,3.5
			c-5.2,2.8-10.5,5.6-15.6,8.4c-5.1,2.8-10.1,5.6-15.2,8.5c-2.3,1.3-4.6,2.6-6.9,3.9C-156,191.8-269.9,290.4-362,407.9
			c-2.4,3.1-4.8,6.2-7.2,9.4c-3,3.9-6,7.7-8.9,11.6c-65.4,87-118.4,182.8-157.4,284.5c0,0,0,0,0,0.1c-3.2,8.5-6.4,17-9.5,25.6
			c-0.5,1.4-1,2.8-1.5,4.3c-2.5,7.1-4.9,14.3-7.3,21.5c-0.9,2.8-1.8,5.7-2.8,8.5c-1.8,5.7-3.7,11.5-5.4,17.3
			c-1.3,4.3-2.6,8.6-3.8,12.9c-1.3,4.4-2.5,8.7-3.8,13.1c-1.6,5.8-3.2,11.5-4.7,17.3c-0.8,2.9-1.6,5.9-2.3,8.9
			c-1.9,7.3-3.6,14.6-5.3,21.8c-0.4,1.5-0.7,3.1-1.1,4.6c-2,8.8-3.9,17.6-5.8,26.5c0,0.1,0,0.2-0.1,0.3
			c-21.9,106.6-28.8,215.8-20.5,324.4c0.4,4.8,0.8,9.7,1.2,14.5c0.4,4,0.7,7.9,1.1,11.9c14.4,148.6,57.3,293,126.3,425.4
			c1.2,2.4,2.5,4.8,3.8,7.2c2.7,5.1,5.4,10.1,8.1,15.2c2.9,5.2,5.8,10.5,8.8,15.7c1.2,2.1,2.4,4.3,3.7,6.4
			c74.5,129.5,173.2,243.5,290.7,335.6c2.9,2.3,5.8,4.5,8.8,6.8c4.1,3.1,8.1,6.3,12.2,9.4c87,65.4,182.7,118.3,284.3,157.3
			c0.1,0,0.2,0.1,0.3,0.1c8.4,3.2,16.9,6.4,25.4,9.4c1.5,0.5,3,1,4.5,1.6c7.1,2.5,14.1,4.9,21.3,7.3c2.9,1,5.8,1.9,8.7,2.8
			c5.7,1.8,11.4,3.6,17.1,5.4c4.3,1.3,8.7,2.6,13.1,3.9c4.3,1.3,8.6,2.5,12.9,3.7c5.8,1.6,11.6,3.2,17.5,4.7
			c2.9,0.8,5.8,1.5,8.7,2.3c7.3,1.9,14.6,3.7,22,5.4c1.5,0.3,3,0.7,4.5,1c8.9,2,17.7,4,26.6,5.8c0,0,0.1,0,0.1,0
			c106.7,21.9,215.8,28.8,324.4,20.5c5-0.4,9.9-0.8,14.9-1.3c3.8-0.3,7.7-0.6,11.5-1c148.6-14.4,293.1-57.3,425.5-126.4
			c2.3-1.2,4.5-2.4,6.7-3.6c5.2-2.8,10.4-5.5,15.6-8.4c5.1-2.8,10.2-5.6,15.2-8.5c2.3-1.3,4.6-2.6,6.9-3.9
			c129.4-74.4,243.3-173.1,335.4-290.6c2.4-3,4.7-6.1,7.1-9.1c3-3.9,6.1-7.9,9.1-11.9c65.4-87,118.4-182.7,157.3-284.4
			c0-0.1,0.1-0.1,0.1-0.2c3.2-8.4,6.4-16.9,9.4-25.5c0.5-1.5,1-2.9,1.6-4.4c2.5-7.1,4.9-14.2,7.3-21.3c1-2.9,1.9-5.8,2.8-8.6
			c1.8-5.7,3.6-11.4,5.4-17.2c1.3-4.3,2.6-8.7,3.9-13c1.3-4.3,2.5-8.6,3.7-13c1.6-5.8,3.2-11.6,4.7-17.4c0.8-2.9,1.5-5.9,2.3-8.8
			c1.9-7.3,3.6-14.6,5.3-21.9c0.4-1.5,0.7-3,1.1-4.6c2-8.8,4-17.7,5.8-26.5c0-0.1,0-0.2,0.1-0.3c21.9-106.6,28.8-215.8,20.5-324.3
			c-0.4-5.2-0.9-10.4-1.3-15.6C1724.1,1024.3,1723.9,1020.7,1723.5,1017.1z M1539.1,575.5c2.7,4.8,5.4,9.6,8,14.4
			c2.8,5.1,5.5,10.2,8.3,15.4c1.1,2,2.2,4.1,3.2,6.1c66.3,127.7,107.6,266.9,121.8,410.1c0.3,3.1,0.6,6.3,0.8,9.4
			c0.5,5.3,1,10.6,1.4,16c2.1,28.1,3.2,56.4,3.2,85c0,76.2-7.6,152.3-22.8,226.9c-0.1,0.3-0.1,0.5-0.2,0.8c-1.7,8.4-3.5,16.7-5.4,25
			c-0.4,1.6-0.8,3.3-1.2,4.9c-1.6,6.9-3.3,13.7-5,20.5c-0.8,3-1.6,6-2.3,9c-1.4,5.4-2.9,10.8-4.4,16.2c-1.2,4.4-2.5,8.7-3.7,13.1
			c-1.2,4-2.4,8-3.6,12c-1.7,5.7-3.5,11.4-5.4,17.1c-0.8,2.6-1.7,5.2-2.5,7.8c-2.3,7-4.7,14.1-7.2,21.1c-0.4,1.2-0.9,2.5-1.3,3.7
			c-28.7,80.2-66.3,156.9-112.2,228.7c-15.4,24.2-31.7,47.6-48.6,70.2c-2.7,3.5-5.4,7.1-8.1,10.6c-2.5,3.2-4.9,6.5-7.4,9.7
			c-88.9,112.9-198.5,207.8-323,279.8c-2.2,1.3-4.4,2.5-6.6,3.8c-4.9,2.8-9.8,5.5-14.7,8.2c-5,2.7-10,5.4-15,8
			c-2.2,1.2-4.4,2.3-6.5,3.5C951,2198.5,812,2239.8,668.9,2254c-3.8,0.4-7.6,0.7-11.4,1c-4.7,0.4-9.3,0.8-14,1.2
			c-28.1,2.1-56.6,3.2-85.3,3.2c-76.3,0-152.4-7.6-227.2-22.9c0,0-0.1,0-0.1,0c-8.6-1.8-17.2-3.6-25.7-5.6c-1.4-0.3-2.8-0.7-4.2-1
			c-7.1-1.7-14.2-3.4-21.2-5.2c-2.8-0.7-5.6-1.4-8.3-2.2c-5.6-1.5-11.3-3-16.9-4.6c-4.1-1.2-8.3-2.3-12.4-3.6
			c-4.2-1.2-8.4-2.5-12.6-3.7c-5.5-1.7-11-3.4-16.5-5.2c-2.8-0.9-5.6-1.8-8.4-2.7c-6.8-2.3-13.7-4.6-20.5-7c-1.4-0.5-2.9-1-4.3-1.5
			c-8.2-2.9-16.3-5.9-24.5-9c-0.1,0-0.2-0.1-0.3-0.1c-71.2-27.4-139.5-61.9-203.8-102.9c-24.2-15.4-47.5-31.6-70.1-48.5
			c-3.9-2.9-7.7-5.9-11.5-8.8c-2.9-2.2-5.8-4.5-8.7-6.7c-113-89-208-198.6-279.9-323.1c-1.2-2.1-2.4-4.2-3.6-6.3
			c-2.8-5-5.6-10-8.4-15c-2.7-4.9-5.3-9.8-7.9-14.7c-1.2-2.3-2.4-4.6-3.6-6.8c-66.2-127.6-107.4-266.6-121.6-409.6
			c-0.4-3.9-0.7-7.8-1-11.7c-0.4-4.6-0.8-9.1-1.2-13.7c-2.1-28.2-3.2-56.6-3.2-85.3c0-76.3,7.6-152.4,22.9-227.2c0-0.1,0-0.1,0-0.2
			c1.8-8.6,3.6-17.1,5.6-25.6c0.3-1.4,0.7-2.9,1-4.3c1.7-7.1,3.4-14.1,5.2-21.1c0.7-2.8,1.4-5.6,2.2-8.4c1.5-5.6,3-11.2,4.5-16.8
			c1.2-4.2,2.4-8.3,3.6-12.5c1.2-4.2,2.5-8.3,3.7-12.5c1.7-5.5,3.4-11.1,5.2-16.6c0.9-2.8,1.8-5.5,2.7-8.3c2.3-6.9,4.6-13.7,7-20.6
			c0.5-1.4,1-2.8,1.5-4.2c2.9-8.2,6-16.4,9.1-24.6c0,0,0-0.1,0.1-0.2c27.4-71.2,61.9-139.5,103-203.8c15.4-24.2,31.6-47.5,48.6-70.1
			c2.9-3.8,5.8-7.6,8.7-11.3c2.3-3,4.5-5.9,6.8-8.9c89-113,198.6-208,323.1-279.9c2.1-1.2,4.2-2.4,6.3-3.6c5-2.8,10-5.6,15-8.4
			c4.9-2.7,9.8-5.3,14.7-7.9c2.3-1.2,4.6-2.4,6.8-3.6C165.5,65.2,304.5,23.9,447.5,9.7c4-0.4,8-0.7,12.1-1.1
			c4.4-0.4,8.9-0.8,13.3-1.1c28.2-2.1,56.6-3.2,85.3-3.2c85.2,0,170.1,9.5,253.1,28.5c1.3,0.3,2.7,0.6,4,0.9
			c7.2,1.7,14.3,3.4,21.5,5.2c2.7,0.7,5.4,1.4,8.1,2.1c5.7,1.5,11.4,3,17.1,4.6c4.1,1.1,8.1,2.3,12.2,3.5c4.3,1.2,8.5,2.5,12.8,3.8
			c5.4,1.7,10.8,3.4,16.3,5.1c2.9,0.9,5.7,1.9,8.6,2.8c6.8,2.2,13.5,4.6,20.3,6.9c1.5,0.5,3,1,4.5,1.6c8.1,2.9,16.2,5.9,24.3,9
			c0.1,0.1,0.3,0.1,0.4,0.2c71.2,27.4,139.4,61.8,203.7,102.9c24.2,15.4,47.5,31.6,70.1,48.5c3.8,2.9,7.6,5.8,11.4,8.7
			c3,2.3,5.9,4.5,8.8,6.8c112.9,88.9,207.9,198.5,279.8,322.9C1536.5,570.8,1537.8,573.1,1539.1,575.5z"/>
		<path class="st3" d="M1153.2,916.1c0,0,23.6,71.2,0,207.6c-21.8,126-83.1,205.8-83.1,205.8l-18.1-45.1l-63.2,9
			c0,0,78.8-63.6,117.4-146.2C1153.9,1045,1153.2,916.1,1153.2,916.1z"/>
		<path class="st3" d="M319,342c0,0-316.4,57.9-386.4,399c-65.6,319.7,151.7,552.5,151.7,552.5l222.1,27.1
			c0,0-193.7-117-265.4-402.6c-32.4-129,19.5-255.7,59.6-321.4c94.5-154.9,240.1-225.7,240.1-225.7L319,342z"/>
		<path class="st4" d="M476.1,210.2c-0.4,0.1-237.1-15.9-424.7,125.1C-233.2,549-186.5,858.3-186.5,858.3S-165.4,552,93.3,376.3
			c202.3-137.4,391.8-117.4,391.8-117.4L476.1,210.2z"/>
		<path class="st4" d="M1100.8,1387.3l25.3,36.1c0,0,273.6-316.2,46.9-767.3C997.4,306.6,642.2,235.4,642.2,235.4v46.9
			c0,0,302,50.4,474.8,362.9C1353.8,1073.1,1100.8,1387.3,1100.8,1387.3z"/>
		<path class="st2" d="M1512.5,1726.8c0,0-120.4-113.5-157.1-97.5c-17.3,7.5,21.7,50.6,21.7,50.6s-268.4-20.3-480.3,7.2
			c-180.9,23.5-251,72.2-251,72.2s107.4-48.8,386.4-56C1264.8,1697.3,1512.5,1726.8,1512.5,1726.8z"/>
		<path class="st2" d="M-399.6,1726.7c0,0,120.4-113.7,157.1-97.7c17.3,7.5-21.7,50.6-21.7,50.6s268.4-20.4,480.3,7.2
			c180.9,23.6,251,72.3,251,72.3s-107.4-48.9-386.4-56.1C-151.9,1697.2-399.6,1726.7-399.6,1726.7z"/>
		<path class="st2" d="M472.4,1359.4c-2.2-0.7-68.6-22-160.7-41.5c-115.9-24.6-249.3-36.1-249.3-36.1s-14.4,60.9-66.8,133.7
			c-76,105.4-182.4,224-182.4,224s201.6-8.8,395.6,9c155.5,14.3,260,59.8,263.6,61.4L472.4,1359.4z"/>
		<path class="st2" d="M1121,1415.4c-52.5-72.8-66.8-133.7-66.8-133.7s-133.4,11.5-249.3,36.1c-93.6,19.9-160.8,41.5-160.8,41.5
			v350.5c0,0,105.5-46.9,263.7-61.4c194-17.8,395.6-9,395.6-9S1197,1520.8,1121,1415.4z"/>
		<path class="st2" d="M644.1,1247.1V179.8L558.3-49.4v-0.2l0,0.1l0-0.1v0.2l-85.8,229.2v1586h171.6v-11.4H644L644.1,1247.1
			L644.1,1247.1z M570,1442.5h-23.5V185.2H570V1442.5z"/>
		<polygon class="st2" points="647.8,1924 647.8,1886.2 574.3,1886.2 472.4,1946.6 472.4,2028.1 		"/>
		<polygon class="st2" points="534.9,1886.2 472.4,1886.2 472.4,1923.2 		"/>
		<rect x="365.9" y="1834.5" class="st5" width="388.4" height="34.4"/>
		<rect x="365.9" y="1785.7" class="st5" width="388.4" height="34.4"/>
		<path class="st6" d="M873.3,522.5l-28.9,75.8c0,0,78.5,61.1,108.3,171.5c20.2,74.7,11.7,161.3-36.1,232.9
			c-8.5,12.7-17.9,24.7-28.3,35.9c20.6,23.7,18,59.6-5.7,80.2c-23.7,20.6-59.6,18-80.2-5.7c-3-3.5-5.6-7.3-7.7-11.4
			c-78.4,29.8-150.7,12.9-150.7,12.9v157.1c0,0,354.2,45.4,411.7-301.5C1102.9,685.4,873.3,522.5,873.3,522.5z"/>
		<path class="st6" d="M748.7,443.1c0,0-161.3-83.2-328.6-27.1c-81,27.2-168.4,77-220.3,202.2c-51.1,123.4-24.4,265.6,21.7,357.5
			c85.5,170.5,251,247.4,251,247.4v-180.5c0,0-92.5-68.2-126.4-178.7c-33.6-109.7-12.4-176.6,19.9-238.3
			C396.5,566.9,474,511.9,557.3,499c93.9-14.5,186,30.7,186,30.7L748.7,443.1z"/>
		<path class="st7" d="M829.1,811.4c13,0,25.6,4.4,35.7,12.6c-17.9-55.3-41.4-102.3-65.1-142.1C727.4,560.5,644,508.1,644,508.1
			v25.3c0,0,106.7,114.4,162.7,282.6C813.8,812.9,821.4,811.4,829.1,811.4z"/>
		<path class="st7" d="M845.3,1132.8c-5.9,0-11.8-0.9-17.4-2.7c-66.6,325.3-355.4,479.4-355.4,479.4v110.1
			c0,0,369.6-269.2,418.9-610.3C880.7,1124,863.6,1132.8,845.3,1132.8z"/>
		<path class="st7" d="M840.2,1019.3c1.7-0.2,3.4-0.2,5.1-0.2c21.8,0,41.8,12.5,51.2,32.2c0.1-2.9,0.2-5.8,0.2-8.7
			c0.9-51.6-4-103.2-14.6-153.7c-7.9,20.5-26.9,34.6-48.8,36.2C838.2,956.1,840.5,987.7,840.2,1019.3z"/>
		<path class="st7" d="M1192.9,1071.4c0,0-103.7-5.7-187.8,30.7c-84.8,36.7-137.2,111.9-137.2,111.9l-75.8,128.2
			c0,0,91.5,3.3,241.9-68.6C1119.2,1232.9,1192.9,1071.4,1192.9,1071.4z"/>
		<path class="st7" d="M842.6,273.3c0,0-69.9,64.6-92.1,148c-22.9,86.2,1.8,191.4,1.8,191.4l45.1,79.4c12-19.1,23.1-38.8,33-59
			c26.5-53.5,58-130.6,55.4-175.7C880.9,368.1,842.6,273.3,842.6,273.3z"/>
		<path class="st7" d="M454.4,928.7c0,0,104.3-31.7,196.8-1.8c83.1,26.8,162.5,121,162.5,121l3.6-1.8l-5.4,48.7h-14.4
			c0,0-133.4,5.6-213.1-32.5C525.5,1034.1,454.4,928.7,454.4,928.7z"/>
		<path class="st7" d="M844.4,1024.4c27.9,0,50.6,22.6,50.6,50.6s-22.6,50.6-50.6,50.6c-27.9,0-50.6-22.6-50.6-50.6l0,0v0
			C793.9,1047.1,816.5,1024.4,844.4,1024.4z"/>
		<path class="st7" d="M459.9,585.7c0,0,136.3,6.6,227.5,81.2c81.4,66.7,117.4,160.7,117.4,160.7L783,885.4
			c0,0-177.5-64.3-223.9-113.7C486.9,694.7,459.9,585.7,459.9,585.7z"/>
		<path class="st7" d="M828.2,818.6c27.9,0,50.6,22.6,50.6,50.6c0,27.9-22.6,50.6-50.6,50.6s-50.6-22.6-50.6-50.6
			C777.6,841.2,800.3,818.6,828.2,818.6L828.2,818.6z"/>
		<path class="st7" d="M264.9,148.8c0,0,49.4,10.9,97.5,36.1c70.9,37.2,111.9,86.7,111.9,86.7l1.8,135.4l-74,18.1
			c0,0-44.1-28-77.6-70.4c-20.1-25.4-33.7-73.6-43.3-110.1C273,213.1,267.6,181.1,264.9,148.8z"/>
		<rect y="-2.6" class="st8" width="1080" height="1923"/>
	</g>
</g>
</svg>
