<svg id="b910c125-36e7-4f71-90c9-a963f7c03b8d" data-name="Layer 1" xmlns="http://www.w3.org/2000/svg" viewBox="0 0 514.02642 513.01788"><defs><style>.ae14ac11-edbc-4859-872c-aa320b43fdd0{fill:#059ade;}.a4af5297-45bf-4217-82de-87e443a28f77{fill:#fff;}.a34ae8c7-b561-4d6e-a97a-cd90a15b5c8d{fill:#fbfdfe;}.ac89386e-b999-4c81-8aef-dedc67ccf2d4{fill:#0d9ddf;}.b47ebc04-95d4-4781-9ac6-2da64148f3b1{fill:#0298dd;}.b1b6c566-bd25-4e78-9cc6-1bc9e8c5cf2d{fill:#feffff;}.a75b08e6-af81-4476-aa5e-b782f6ed6028{fill:#ea1e27;}.b21171df-41d9-4392-b417-83a0a93e3169{fill:#236cb1;}.f29f6812-4040-4925-8f87-bdcd5af3b340{fill:#f4ec3a;}.e58f73fc-efd8-47b0-b7fa-89d9b3941878{fill:#079bde;}</style></defs><path class="ae14ac11-edbc-4859-872c-aa320b43fdd0" d="M271.84967,513.554h-20.137q-3.74689-.268-7.49381-.53609a258.45778,258.45778,0,0,1-44.5589-5.96825c-52.32-11.47664-95.9931-38.06606-132.423-76.83092-35.573-37.8532-54.77934-83.64882-63.38585-134.34058-1.255-7.39184-2.18438-14.839-3.26442-22.26063Q.56261,257.54306.53852,241.4686a34.14627,34.14627,0,0,0,.89961-3.66122C2.5646,229.5,3.30978,221.12687,4.77866,212.88216,14.48487,158.40182,38.50151,111.358,78.15526,72.55842,114.08543,37.40224,156.75242,14.90914,206.09288,5.5443c13.60127-2.58153,27.526-3.45556,41.30233-5.11306L251.61293.495l3.93535-.44122h16.78084l6.23529.3786c6.4228.72584,12.8775,1.242,19.26291,2.214,26.92172,4.098,52.2923,12.91545,76.45011,25.4046Q465.17079,75.0412,499.823,171.363c8.45978,23.5295,12.70836,47.97466,13.79568,72.9603q-.0482,1.88429-.09645,3.76855.22552,1.95651.451,3.913v14.87711q-.22377,1.95553-.44749,3.911.04477,1.88524.08943,3.77048c-1.20847,10.46765-1.83652,21.04138-3.72308,31.38509-9.75609,53.4901-36.0087,98.44372-74.11843,136.17852-33.77516,33.44292-74.60905,55.39587-121.17168,65.814-11.39923,2.55056-23.17137,3.43117-34.77208,5.07956Q275.83982,513.28734,271.84967,513.554ZM505.74392,258.02379C506.86781,116.66117,388.48847,10.33812,262.95112,9.22894,117.20118,7.94117,8.31856,126.04712,9.98729,256.24584c-2.69,139.85687,116.89131,249.47233,248.917,249.43753C393.7427,505.64781,507.53432,390.64357,505.74392,258.02379Z"/><path class="a4af5297-45bf-4217-82de-87e443a28f77" d="M247.39521.43124c-13.77632,1.6575-27.70106,2.53153-41.30233,5.11306-49.34046,9.36484-92.00745,31.85794-127.93762,67.01412C38.50151,111.358,14.48487,158.40182,4.77866,212.88216,3.30978,221.12687,2.5646,229.5,1.43813,237.80738a34.14627,34.14627,0,0,1-.89961,3.66122L0,241.44685Q0,121.88874-.0536,2.33068C-.05513.3822.33784-.00091,2.27788.00056q122.55981.093,245.1197.0532Q247.39284.24248,247.39521.43124Z"/><path class="a4af5297-45bf-4217-82de-87e443a28f77" d="M.5867,273.6175c1.08,7.4216,2.00943,14.86879,3.26442,22.26063C12.45763,346.56989,31.664,392.36551,67.237,430.21871c36.42988,38.76486,80.103,65.35428,132.423,76.83092a258.4578,258.4578,0,0,0,44.55889,5.96825l-.17743.53609q-120.94193,0-241.88384.046c-1.80569.00123-2.20479-.39819-2.20358-2.20563Q.03394,392.49752,0,273.6006Z"/><path class="a4af5297-45bf-4217-82de-87e443a28f77" d="M513.61878,244.32327c-1.08738-24.98564-5.336-49.4308-13.79574-72.9603q-34.611-96.26508-125.54561-143.312C350.11962,15.56181,324.749,6.74436,297.82732,2.64636c-6.38541-.972-12.84011-1.48816-19.26291-2.214q.00254-.18932-.0024-.3786Q395.1306.05376,511.69915,0c1.948-.00158,2.32873.39393,2.32727,2.33444q-.093,120.99588-.05315,241.99185A3.46129,3.46129,0,0,0,513.61878,244.32327Z"/><path class="a4af5297-45bf-4217-82de-87e443a28f77" d="M279.82994,513.02064c11.60071-1.64839,23.37285-2.529,34.77208-5.07956,46.56263-10.41817,87.39652-32.37112,121.17168-65.814,38.10973-37.7348,64.36234-82.68842,74.11843-136.17852,1.88656-10.34371,2.51461-20.91744,3.72308-31.38509l.17909.00284.179-.00585q0,118.417.046,236.83391c.00123,1.80744-.39787,2.20692-2.2036,2.20569q-115.90761-.08033-231.81531-.046Z"/><path class="a34ae8c7-b561-4d6e-a97a-cd90a15b5c8d" d="M.5867,273.6175,0,273.6006V241.44685l.53852.02175Z"/><path class="a34ae8c7-b561-4d6e-a97a-cd90a15b5c8d" d="M278.562.05376q.005.18928.0024.3786l-6.23529-.3786Z"/><path class="a34ae8c7-b561-4d6e-a97a-cd90a15b5c8d" d="M247.39521.43124q-.00237-.18876.00237-.37748h4.31508a.47626.47626,0,0,1-.09973.44122Z"/><path class="a34ae8c7-b561-4d6e-a97a-cd90a15b5c8d" d="M513.61872,244.32327a3.46232,3.46232,0,0,1,.35455.003v3.83925l-.451-.07372Q513.57055,246.20755,513.61872,244.32327Z"/><path class="ac89386e-b999-4c81-8aef-dedc67ccf2d4" d="M513.52232,248.09182l.45095.07372v3.83926Q513.74784,250.04829,513.52232,248.09182Z"/><path class="ac89386e-b999-4c81-8aef-dedc67ccf2d4" d="M513.52578,270.793q.22377-1.95554.44749-3.911v3.83925A.442.442,0,0,0,513.52578,270.793Z"/><path class="ac89386e-b999-4c81-8aef-dedc67ccf2d4" d="M251.61293.495a.47626.47626,0,0,0,.09973-.44122h3.83562Z"/><path class="a34ae8c7-b561-4d6e-a97a-cd90a15b5c8d" d="M513.52584,270.793a.44188.44188,0,0,1,.44743-.07179v3.83926l-.179.00585-.17909-.00284Z"/><path class="a34ae8c7-b561-4d6e-a97a-cd90a15b5c8d" d="M505.74392,258.02379c1.7904,132.61978-112.00122,247.624-246.83962,247.65958-132.0257.0348-251.607-109.58066-248.917-249.43753C8.31856,126.04712,117.20118,7.94117,262.95112,9.22894,388.48847,10.33812,506.86781,116.66117,505.74392,258.02379ZM261.88739,15.81422C123.30954,14.4845,19.05278,126.6626,19.13349,252.43145c.09613,149.78744,119.80125,241.95343,239.322,242.71764,122.44883.78284,239.24162-96.8138,240.07721-239.89909C499.40767,105.41794,369.71365,13.454,261.88739,15.81422Z"/><path class="b47ebc04-95d4-4781-9ac6-2da64148f3b1" d="M261.88739,15.81422C369.71365,13.454,499.40767,105.41794,498.5327,255.25c-.83559,143.08529-117.62838,240.68193-240.07721,239.89909-119.52075-.76421-239.22587-92.9302-239.322-242.71764C19.05278,126.6626,123.30954,14.4845,261.88739,15.81422ZM162.8957,449.34216l-.00129-.32c-.02929.04007-.09181.09637-.08167.11716a.83352.83352,0,0,0,.1372.16608c1.369,1.07707,2.67935,2.24037,4.1162,3.21735,10.4728,7.12089,22.00977,11.958,34.10761,15.4356,34.772,9.99547,70.07444,11.5624,105.77151,6.34746,38.8431-5.67461,71.069-24.17911,98.9491-51.11435a21.31585,21.31585,0,0,1,2.56471.32247c2.55139.6273,5.07144,1.3884,7.6346,1.958a6.82893,6.82893,0,0,0,2.26508-.29127,14.58525,14.58525,0,0,0-.68775-1.93173c-1.34641-2.60187-2.7395-5.1795-4.11561-7.766a162.30614,162.30614,0,0,0,39.05532-56.3108c13.54488-32.37405,16.283-65.86782,9.54913-100.148-8.41819-42.85429-28.66316-79.01108-61.928-107.56817a141.55719,141.55719,0,0,0-26.74562-18.46555l-1.877-.83633,1.2458.901c.456.4365.88361.908,1.372,1.30449a189.51138,189.51138,0,0,1,58.93879,81.88263c15.6969,41.80275,16.11557,83.68047-.24654,125.43066a117.16068,117.16068,0,0,1-20.89,35.01978,239.65547,239.65547,0,0,0-10.08744-41.62822c-10.24766-29.86388-25.03183-57.559-40.83712-84.71813-12.55639-21.57632-27.98784-40.79916-47.64722-56.5072-9.78567-7.81886-20.216-13.50266-32.84839-14.92364-5.36659-.60367-10.71959-1.84017-15.42334-4.83836-2.222-1.4163-3.3051-3.02109-2.93948-6.0766,2.28922-19.13271-2.87368-36.23229-14.81317-51.2857-3.05089-3.84659-6.50027-7.25218-11.37945-8.83247a8.26638,8.26638,0,0,1-5.20568-5.28526c-.54-1.41827-1.01694-2.86877-1.66833-4.235a45.17529,45.17529,0,0,0-18.06684-19.63354,6.02358,6.02358,0,0,0-1.08247-.3964,8.78718,8.78718,0,0,0-.152,1.2682c.04913,2.31768.09927,4.636.20243,6.95168.09821,2.20459.26195,4.40624.3969,6.60919l-.04548.65814c-17.22238-5.07308-35.03147-4.837-52.70493-5.81846a4.897,4.897,0,0,0-1.28664.28312c.2288.39429.36381.919.70127,1.16217a93.6704,93.6704,0,0,0,8.02128,5.57818c5.47155,3.13006,11.25959,5.72663,16.619,9.02808,12.71767,7.83418,25.28817,15.9095,37.84988,23.99367a51.72067,51.72067,0,0,1,5.83733,4.93172,4.94682,4.94682,0,0,1,.74941,1.19067,8.453,8.453,0,0,1-1.50084-.20869c-5.434-1.761-10.671-2.798-14.51974,3.09084a5.701,5.701,0,0,1-2.42948,1.9034,23.33057,23.33057,0,0,1-4.28354,1.24943c-.34578.0769-.7983-.32695-1.20171-.50967.26318-.28226.513-.57859.79172-.84448,1.60136-1.52734,3.336-2.93842,4.77263-4.607,1.01717-1.18141,1.06753-2.18251-1.14024-2.175a9.53876,9.53876,0,0,1-4.80055-1.07771,28.82513,28.82513,0,0,1-5.22217-4.50476c-2.27657-2.29365-4.7889-3.92489-8.1296-4.08746a2.16288,2.16288,0,0,0-2.62423,2.00206c-.86455,3.88717.29912,7.41982,1.55649,10.969a3.28387,3.28387,0,0,0-.29376.29939c-4.13686-2.44246-5.84314-7.02234-4.84787-12.71645a3.91965,3.91965,0,0,0-.29422-2.61133c-2.31974-3.42851-4.88609-6.68984-7.20651-10.11792a35.78463,35.78463,0,0,0-12.32248-11.43929,79.17061,79.17061,0,0,1-7.253-4.61584A13.47028,13.47028,0,0,1,149.77045,86.57c3.449-1.5762,7.22764-2.67968,10.28574-4.81638,9.54251-6.66736,20.016-11.30515,30.9097-15.09393,23.44683-8.15471,47.66047-10.7576,72.36867-10.084a221.59829,221.59829,0,0,1,37.07631,3.96321q59.69837,11.812,103.157,54.481c6.75249,6.66567,13.04592,13.83091,19.18979,21.07293,9.83276,11.59027,17.99867,24.28588,23.17775,38.67114,2.2584,6.273,3.9014,12.76806,5.68723,18.70758-.00011.0018.04551-.54269.054-1.08776.21315-13.6593-3.561-26.36934-9.29929-38.57969-6.29873-13.403-14.947-25.293-23.98864-36.92055-12.77927-16.43429-26.55625-31.93052-42.38106-45.52994-19.90975-17.10994-42.17527-29.50861-68.06126-35.0938-17.84139-3.84948-35.81987-6.66473-54.05253-6.74223a241.72278,241.72278,0,0,0-32.89805,2.2523,161.58225,161.58225,0,0,0-80.32041,34.307,133.39681,133.39681,0,0,0-11.11192,10.55126c-1.78888,1.79227-1.559,2.17381.84684,2.74419,3.107.7366,6.23565,1.41979,9.28114,2.36443a39.77538,39.77538,0,0,1,5.10324,2.37442,4.09354,4.09354,0,0,1-.7076-.04906q-15.52776-3.77952-31.05623-7.55589a12.11655,12.11655,0,0,0-2.09656-.14228,13.81211,13.81211,0,0,0,.83109,1.85559c.67821,1.07771,1.49081,2.07082,2.167,3.14971,1.67337,2.67,3.30124,5.36864,4.9474,8.05575-.785.24324-1.82189.26164-2.29032.78744-.56745.637-1.14434,1.95532-.84824,2.5312.63728,1.23935,3.49919,1.03132,4.77874-.11611,1.11729,1.71386.67241,2.30984-1.34713,2.06318a26.00918,26.00918,0,0,0-3.56764.032c-.81026.32471-1.90964.41518-2.389,1.008a190.10878,190.10878,0,0,0-36.05694,71.62772A180.07144,180.07144,0,0,0,71.33712,225.982a130.735,130.735,0,0,0,6.14943,33.34193,11.72584,11.72584,0,0,0,.83874,1.97944c.16647.29751.57063.46178.86715.68638a5.60842,5.60842,0,0,0,.09306-1.07782c-.51818-4.9998-1.33875-9.98683-1.53069-14.99826a179.74835,179.74835,0,0,1,2.31943-39.15634c2.68-14.74642,6.29545-29.18907,12.71138-42.84937,1.59687-3.39991,2.2347-7.26461,3.18828-10.9481.47712-1.84305.28851-3.9356,1.0579-5.61351,4.8943-10.67356,9.82054-21.33853,15.06023-31.84444,2.2332-4.47771,5.24757-8.56508,7.907-12.82984,1.02292.98946.63667,1.81725-.03965,2.908a160.17908,160.17908,0,0,0-8.409,14.2094c-4.35385,8.97785-8.25482,18.17585-12.33767,27.28517a34.49788,34.49788,0,0,0-2.67652,18.28621c1.23942,10.9517,2.54634,21.89763,4.00558,32.8218.874,6.54252,1.76278,12.82192.03371,19.58833-1.76235,6.89665.17949,14.11778,1.78809,21.07768.38921,1.684,1.27182,1.15107,1.96543.43077,1.37987-1.433,2.59747-3.02137,3.94407-4.48856.27356-.29807.82062-.34464,1.2416-.50715a3.19459,3.19459,0,0,1,.09281.89091c-1.08657,5.937.95683,11.05852,4.305,15.73078,2.54631,3.55329,4.45185,7.18027,3.62436,11.74357a6.88388,6.88388,0,0,0,.20373,2.13594c1.66145,11.18777,6.67843,20.93418,13.04381,30.06354a163.34326,163.34326,0,0,0,28.98888,31.154c14.32234,12.10575,30.03407,22.23866,45.82515,32.24988,1.686,1.06887,1.77763,1.68589.71774,3.39971-1.17853,1.90566-1.63526,4.2585-2.40416,6.41346l-.36193-.29567.365.29168c2.41743-1.42288,4.72105-3.71951,7.28031-4.05352a27.53809,27.53809,0,0,1,10.51607,1.147c8.07085,2.21207,16.02473,4.85243,24.0215,7.334,1.67592.5201,3.31725,1.15648,5.00353,1.63735,1.52155.434,1.84728,1.086,1.401,2.73612a76.30764,76.30764,0,0,0-1.83149,9.609,21.7801,21.7801,0,0,0,.27356,4.41843,23.31468,23.31468,0,0,0,3.30241-3.21477,36.52939,36.52939,0,0,1,12.44438-11.394,15.65519,15.65519,0,0,1,8.34488-2.084c8.487.74848,16.94554,1.97715,25.35821,3.36538,7.3906,1.2196,14.65889,3.224,22.06655,4.28454a23.57873,23.57873,0,0,1,14.94331,7.7013c1.29988,1.44431,3.12981,2.41069,4.71724,3.59572-7.321,3.73744-14.52835,7.72107-21.98348,11.16788-26.33554,12.176-53.77593,19.73145-83.06532,19.096a160.45086,160.45086,0,0,1-80.389-22.9087c-18.03567-10.80944-32.95659-25.17685-46.71421-40.89192C91.44364,338.86244,76.337,316.21822,67.135,290.04576c-15.1803-43.17585-14.55662-86.75973-2.5175-130.47149,3.29639-11.96852,8.20435-23.225,17.362-32.101a6.18415,6.18415,0,0,0,1.08517-1.5681,3.55639,3.55639,0,0,0,.1871-1.09738,3.49735,3.49735,0,0,0-.97231.456c-1.98,1.85783-4.04625,3.641-5.87375,5.64137-10.872,11.90054-17.20242,26.22406-21.80331,41.43286-4.98808,16.48871-7.6304,33.4546-10.27374,50.43281-4.35959,28.00167-3.12957,55.78105,4.91948,82.86605,14.50869,48.82175,44.76964,86.1101,86.95875,113.7318a148.34643,148.34643,0,0,0,81.44741,24.59953c17.25459.13277,34.24269-2.29614,51.01288-6.21512,29.756-6.95361,56.52608-19.92372,79.72025-40.0054q15.12619,7.81833,30.25237,15.6366c-.51563.49988-1.01711,1.01538-1.54883,1.49748a196.17182,196.17182,0,0,1-78.75546,43.91636c-32.3443,9.24675-65.16458,9.87742-98.14419,4.14537-12.12135-2.10677-24.03378-5.19863-34.26023-12.68205A9.86293,9.86293,0,0,0,162.8957,449.34216Z"/><path class="b1b6c566-bd25-4e78-9cc6-1bc9e8c5cf2d" d="M203.90992,368.06877c.771-2.15818,1.22769-4.511,2.40622-6.41668,1.05989-1.71382.96826-2.33084-.71774-3.39971-15.79108-10.01122-31.50281-20.14413-45.82515-32.24988a163.34326,163.34326,0,0,1-28.98888-31.154c-6.36538-9.12936-11.38236-18.87577-13.04381-30.06354a6.88388,6.88388,0,0,1-.20373-2.13594c.82749-4.5633-1.078-8.19028-3.62436-11.74357-3.3482-4.67226-5.3916-9.79381-4.305-15.73078a3.19459,3.19459,0,0,0-.09281-.89091c-.421.16251-.968.20908-1.2416.50715-1.3466,1.46719-2.5642,3.05558-3.94407,4.48856-.69361.7203-1.57622,1.25321-1.96543-.43077-1.6086-6.9599-3.55044-14.181-1.78809-21.07768,1.72907-6.76641.84025-13.04581-.03371-19.58833-1.45924-10.92417-2.76616-21.8701-4.00558-32.8218a34.49788,34.49788,0,0,1,2.67652-18.28621c4.08285-9.10932,7.98382-18.30732,12.33767-27.28517a160.17908,160.17908,0,0,1,8.409-14.2094c.67632-1.09075,1.06257-1.91854.03962-2.90788l-.00253.08964-.525-1.103.06575.13049-.56729-1.07243.03148.12673-.58053-1.22942-2.8157-4.89145a26.00918,26.00918,0,0,1,3.56764-.032c2.01954.24666,2.46442-.34932,1.34786-2.06227q-.81973-1.60081-1.64091-3.20344c-1.64616-2.68711-3.274-5.38571-4.9474-8.05575-.67615-1.07889-1.48875-2.072-2.167-3.14971a13.81211,13.81211,0,0,1-.83109-1.85559,12.11655,12.11655,0,0,1,2.09656.14228q15.53373,3.75471,31.05623,7.55589a4.12568,4.12568,0,0,0,.70743.04939l-.04173-.0477,1.49618.68749L149.77045,86.57a13.47028,13.47028,0,0,0,5.49928,7.59705,79.17061,79.17061,0,0,0,7.253,4.61584,35.78463,35.78463,0,0,1,12.32248,11.43929c2.32042,3.42808,4.88677,6.68941,7.20651,10.11792a3.91965,3.91965,0,0,1,.29422,2.61133c-.99527,5.69411.711,10.274,4.84809,12.71586q.29487-.00388.58931-.0066l-.29577-.2922c-1.25737-3.54914-2.421-7.08179-1.55649-10.969a2.16288,2.16288,0,0,1,2.62423-2.00206c3.3407.16257,5.853,1.79381,8.1296,4.08746a28.82513,28.82513,0,0,0,5.22217,4.50476,9.53876,9.53876,0,0,0,4.80055,1.07771c2.20777-.00755,2.15741.99355,1.14024,2.175-1.43662,1.6686-3.17127,3.07968-4.77263,4.607-.27876.26589-.52854.56222-.79172.84448.40341.18272.85593.58657,1.20171.50967a23.33057,23.33057,0,0,0,4.28354-1.24943,5.701,5.701,0,0,0,2.42948-1.9034c3.84879-5.88888,9.08574-4.85181,14.51974-3.09084a8.453,8.453,0,0,0,1.50084.20869,4.94682,4.94682,0,0,0-.74941-1.19067,51.72067,51.72067,0,0,0-5.83733-4.93172c-12.56171-8.08417-25.13221-16.15949-37.84988-23.99367-5.35943-3.30145-11.14747-5.898-16.619-9.02808a93.6704,93.6704,0,0,1-8.02128-5.57818c-.33746-.24319-.47247-.76788-.70127-1.16217a4.897,4.897,0,0,1,1.28664-.28312c17.67346.98151,35.48255.74538,52.70493,5.81846,2.54091,1.10083,5.079,2.20824,7.62606,3.2946a6.653,6.653,0,0,0,1.07827.26479c-.24321-.35928-.4073-.90728-.74215-1.04792-2.62044-1.10061-5.27363-2.12305-7.9167-3.16961-.135-2.203-.29869-4.4046-.3969-6.60919-.10316-2.3157-.1533-4.634-.20243-6.95168a8.78718,8.78718,0,0,1,.152-1.2682,6.02358,6.02358,0,0,1,1.08247.3964,45.17529,45.17529,0,0,1,18.06684,19.63354c.65139,1.36621,1.12836,2.81671,1.66833,4.235a8.26638,8.26638,0,0,0,5.20568,5.28526c4.87918,1.58029,8.32856,4.98588,11.37945,8.83247,11.93949,15.05341,17.10239,32.153,14.81317,51.2857-.36562,3.05551.71745,4.6603,2.93948,6.0766,4.70375,2.99819,10.05675,4.23469,15.42334,4.83836,12.63234,1.421,23.06272,7.10478,32.84839,14.92364,19.65938,15.708,35.09083,34.93088,47.64722,56.5072,15.80529,27.15917,30.58946,54.85425,40.83712,84.71813a239.65547,239.65547,0,0,1,10.08744,41.62822,28.3807,28.3807,0,0,0,.09332,3.57715c.60792,4.10426,1.24267,8.20725,2.0073,12.2844.38145,2.0341-.15961,2.73507-2.27664,2.50944-3.17058-.338-6.36712-.42616-9.5492-.66579-1.04591-.07876-1.84372-.12405-1.18324,1.31368A80.65767,80.65767,0,0,0,413.55539,415.483c1.37611,2.58647,2.7692,5.1641,4.11561,7.766a14.58525,14.58525,0,0,1,.68775,1.93173,6.82893,6.82893,0,0,1-2.26508.29127c-2.56316-.56963-5.08321-1.33073-7.6346-1.958a21.277,21.277,0,0,0-2.565-.32229q-13.62735-4.90343-27.25429-9.80727l-30.2524-15.63657-6.63087-4.60376c-1.58743-1.18506-3.41736-2.15144-4.71724-3.59575A23.57873,23.57873,0,0,0,322.096,381.847c-7.40766-1.06052-14.67595-3.06494-22.06655-4.28454-8.41267-1.38823-16.87121-2.6169-25.35821-3.36538a15.65519,15.65519,0,0,0-8.34488,2.084,36.52939,36.52939,0,0,0-12.44438,11.394,23.31468,23.31468,0,0,1-3.30241,3.21477,21.7801,21.7801,0,0,1-.27356-4.41843,76.30764,76.30764,0,0,1,1.83149-9.609c.44629-1.65012.12056-2.30214-1.401-2.73612-1.68628-.48087-3.32761-1.11725-5.00353-1.63735-7.99677-2.48152-15.95065-5.12188-24.0215-7.334a27.53809,27.53809,0,0,0-10.51607-1.147c-2.55926.334-4.86288,2.63064-7.28031,4.05352Zm21.10287-221.79706c-5.21219,4.18649-10.45551,8.33534-15.60545,12.59719a9.79723,9.79723,0,0,0-1.87022,2.87073c-.15989.2858-.03129.73331-.035,1.10666a3.33051,3.33051,0,0,0,1.21318-.31478c4.09831-3.17576,8.36812-6.17168,12.16078-9.68259,1.82348-1.688,2.73346-4.36473,4.04784-6.58413l-.0296.11425ZM359.92742,353.11237a8.05708,8.05708,0,0,0-.96-.499c-.44931-.15354-.91492-.26089-1.37635-.37718-30.28187-7.63067-58.76549-19.48962-85.03622-36.46456-24.20138-15.63786-45.38844-34.532-61.81631-58.40659-7.51262-10.91809-13.219-22.66811-14.39889-36.11688-1.33846-15.25577,3.28413-27.28316,18.32485-34.42779,6.66384-3.16547,13.88948-5.14672,20.86255-7.65873,1.36962-.4934,2.75046-.95557,4.12614-1.43212a34.72519,34.72519,0,0,0-4.59773-1.028c-28.85081-2.55939-49.96111,20.56342-44.98125,49.06758,2.25072,12.88261,7.86708,24.23053,15.05019,34.94671,15.37109,22.93151,35.24514,41.17488,58.08183,56.44924C292.56437,336.80131,324.10712,350.38381,359.92742,353.11237Zm-99.905-197.61752.53614-.20009c-1.18754-5.17279-2.01678-10.46674-3.70508-15.47023-.92394-2.73818-3.2802-4.99975-5.04581-7.43615-.22059-.30436-.78014-.36258-1.18263-.53484a7.21015,7.21015,0,0,0-.20461,1.12156c-.05021,1.83705-.04234,3.67592-.10678,5.51234-.15,4.27138-.14924,4.34836-4.375,5.04687-1.45051.23974-1.63462.71187-.86158,1.77466,3.04337,4.18413,5.97759,8.45943,9.23988,12.46636,1.2396,1.52254,3.25521,2.41207,4.91711,3.59012Q259.62817,158.43013,260.02237,155.49485ZM151.78281,191.36524l.24469-.48118c-2.66609-3.17325-5.65962-6.12824-7.94122-9.55777-9.57594-14.39373-12.94491-29.87008-7.4202-46.72082a25.61356,25.61356,0,0,0,.92755-3.95385,5.09341,5.09341,0,0,0-.33536-1.701c-.41351.33233-.991.57958-1.21424,1.01064-1.60531,3.09911-3.54087,6.10486-4.606,9.389-1.8571,5.72587-1.59085,11.69482-.55122,17.57014,1.9481,11.00955,6.12063,21.01884,14.04374,29.1195C146.93486,188.0892,149.484,189.60456,151.78281,191.36524ZM319.23012,332.765c.20482-.19607,1.228-1.02123,1.157-1.12984-3.056-4.67467-6.13815-9.33645-9.38324-13.881-1.40649-1.96968-3.26528-1.68366-4.99478-.23219-3.14392,2.63843-3.23136,6.9305-.10177,10.14128C309.35209,331.19732,313.84737,332.2088,319.23012,332.765ZM123.80875,243.49467c.20591,4.79674.90469,8.377,3.52661,11.24367,1.76958,1.93477,3.95391,2.96359,6.64043,2.17405.2292-.06737.4877-.93333.42158-.9792-2.45308-1.70209-2.88179-4.30452-3.062-6.96331-.22107-3.26119-.20189-6.542-.52068-9.79138a3.88234,3.88234,0,0,0-1.53-2.77107,2.51814,2.51814,0,0,0-3.50135,1.5648C124.90121,240.07159,124.24053,242.26413,123.80875,243.49467ZM240.64608,118.59842a7.9267,7.9267,0,0,0-1.17075-2.21115c-3.48067-3.74294-8.15518-4.73579-12.94923-5.3765-.18689-.025-.39785.13061-.5976.20207a5.83109,5.83109,0,0,0,.4853.73611c1.80389,2.01723,3.51421,4.134,5.46338,6.00033a23.83712,23.83712,0,0,0,5.08906,3.84839C239.19492,122.992,240.707,121.78525,240.64608,118.59842Zm-62.732,57.35326.04754-.23687a9.71484,9.71484,0,0,0,1.19058-.00663c3.22831-.40154,6.47879-1.08366,8.05493-4.24224.561-1.12417.12221-3.07253-.51521-4.30535-.24139-.4669-2.64351-.43528-3.514.16435a63.42391,63.42391,0,0,0-6.51718,5.53445,19.169,19.169,0,0,0-1.89418,2.33845Q176.3403,175.57474,177.91405,175.95168ZM325.24233,313.50723c-.26828.55568-.76307,1.09429-.65079,1.42856.63335,1.88524.89377,4.59538,2.24583,5.39939,3.19528,1.90015,6.93172,2.89013,10.45639,4.2295a1.74156,1.74156,0,0,0,.67672-.04162c-.07863-.26365-.07594-.61113-.24807-.77847-3.00486-2.92133-5.98136-5.87573-9.08762-8.68607C327.85547,314.35342,326.6447,314.12615,325.24233,313.50723Zm45.39391,31.79951.02674-.30536c1.11237,0,2.22812.05319,3.33589-.01819a19.96734,19.96734,0,0,0,2.32578-.41368c-.63812-.4986-1.25792-1.02317-1.91907-1.489a20.83173,20.83173,0,0,0-2.4016-1.55375,35.7652,35.7652,0,0,0-6.19326-2.92988c-1.47848-.42683-3.48984-.41023-4.18131,1.69124-.59273,1.80147.63891,3.68718,2.89369,4.20334C366.51857,344.94818,368.59537,345.04886,370.63624,345.30674ZM346.37969,342.043l.04714-.21219a19.74345,19.74345,0,0,0,2.14651-.03474c.14933-.01637.39458-.67165.35268-.70261-2.87555-2.12135-5.68314-4.36178-8.72663-6.21307-1.007-.61245-2.62722-.21482-3.967-.279a23.41811,23.41811,0,0,0,1.538,4.509,4.5412,4.5412,0,0,0,2.583,1.58594C342.32474,341.27328,344.36674,341.60837,346.37969,342.043ZM210.24021,99.3703l-1.9123.21242c.25509.36017.48651.7403.76969,1.07679a27.57559,27.57559,0,0,0,2.665,3.04631,24.52213,24.52213,0,0,0,4.34,3.16886c.48108.26385,1.71948-.23807,2.19965-.765a2.518,2.518,0,0,0,.53134-2.25263,7.54822,7.54822,0,0,0-2.89338-2.94524A33.9264,33.9264,0,0,0,210.24021,99.3703ZM142.93835,241.83588l-.42505.17376c.86017,2.17689,1.31018,4.68358,2.7094,6.427,1.13329,1.412,3.3998,1.92382,5.18957,2.78073.18669.0894.54913-.189.83-.29675-.11865-.17917-.23959-.35691-.35561-.53775q-3.182-4.95954-6.36763-9.91671c-.31679-.49089-.69719-.94066-1.04817-1.40943-.1448.53081-.31609,1.05621-.42548,1.59424A10.16315,10.16315,0,0,0,142.93835,241.83588Zm19.697-58.9484c2.74089.02947,4.9296-.27548,4.94162-2.3411.01163-1.99871-2.23265-2.35967-3.92191-2.10706a68.94058,68.94058,0,0,0-6.94993,1.6534c-.25984.067-.452.39694-.67554.60495a3.18826,3.18826,0,0,0,.59422.33557C158.89659,181.74282,161.17375,182.43836,162.63532,182.88748ZM215.325,114.19082l-1.4264.18906c.37858.54473.71534,1.12531,1.14449,1.62667a20.30923,20.30923,0,0,0,2.75551,2.98623,15.90776,15.90776,0,0,0,4.06824,2.35145c1.6.59981,2.42828.06545,1.753-1.867C222.552,116.42127,219.54982,114.33623,215.325,114.19082ZM176.02959,272.3426a11.785,11.785,0,0,0,1.633-.23195c.1354-.03445.29477-.692.21562-.74962-2.87781-2.09573-5.72305-4.24661-8.71037-6.17658-1.36012-.8787-1.3459.34277-1.22178,1.25364C168.41081,269.84837,171.767,272.36686,176.02959,272.3426Zm-21.78733,7.64166c-4.1845-.32507-6.491-2.52847-8.3162-5.41137-.812-1.28263-1.61032-2.57443-2.44815-3.83995a2.73828,2.73828,0,0,0-.70981-.53893,3.25394,3.25394,0,0,0-.28886.79145A8.89059,8.89059,0,0,0,154.24226,279.98426Zm10.86317-107.30384.05291-.26786c.47648,0,.95667.03851,1.42877-.007,1.65848-.15974,3.14877-.86358,3.07562-2.66931-.07955-1.96378-1.88057-1.78255-3.28866-1.80524a3.37763,3.37763,0,0,0-1.62265.30268c-1.81384.99846-3.57837,2.08667-5.36119,3.14157Q162.24784,172.02786,165.10543,172.68042ZM358.27655,326.5006c-3.17357-2.1428-6.00138-4.07409-8.85882-5.96047a8.95249,8.95249,0,0,0-1.66705-.67823,6.83956,6.83956,0,0,0,.57275,1.92229C350.60176,325.20139,353.90382,326.54816,358.27655,326.5006ZM199.64443,103.74637l-.36035.48512-1.16034.13683c.07016.20976.07487.514.22038.615,1.92582,1.33747,3.85116,2.67853,5.83332,3.92862.30543.19262.89459-.06551,1.35252-.11518-.12077-.44619-.09521-1.09417-.38624-1.30561C203.35033,106.18816,201.4855,104.98364,199.64443,103.74637Zm25.411-2.35764c-.43967,1.07407-.77844,1.50919-.67294,1.70741.70026,1.31567,1.49568,2.58059,2.26015,3.862.5306-.57193,1.61189-1.48573,1.50337-1.66087A39.46238,39.46238,0,0,0,225.05542,101.38873Z"/><path class="a75b08e6-af81-4476-aa5e-b782f6ed6028" d="M341.75653,393.144l6.63087,4.60376c-23.19417,20.08165-49.96428,33.05176-79.72025,40.00537-16.77019,3.919-33.75829,6.34789-51.01288,6.21512a148.34643,148.34643,0,0,1-81.44741-24.59953C94.01775,391.747,63.7568,354.45868,49.24811,305.63693c-8.049-27.085-9.27907-54.86438-4.91948-82.866,2.64334-16.97821,5.28566-33.9441,10.27374-50.43281,4.60089-15.2088,10.93132-29.53232,21.80331-41.43286,1.8275-2.00039,3.89374-3.78354,5.87375-5.64137a3.49728,3.49728,0,0,1,.97232-.456,3.55669,3.55669,0,0,1-.18711,1.09738,6.18415,6.18415,0,0,1-1.08517,1.5681c-9.15763,8.876-14.06559,20.13246-17.362,32.101C52.57837,203.286,51.95469,246.86991,67.135,290.04576c9.20205,26.17246,24.30865,48.81668,42.46955,69.56152,13.75762,15.71507,28.67854,30.08248,46.71421,40.89192a160.45086,160.45086,0,0,0,80.389,22.9087c29.28939.63541,56.72978-6.92,83.06532-19.096C327.22818,400.86505,334.43554,396.88142,341.75653,393.144Z"/><path class="b21171df-41d9-4392-b417-83a0a93e3169" d="M149.77045,86.57q-1.76078-.90933-3.52161-1.81875-.74812-.3438-1.49609-.68739l.04173.0477a39.72024,39.72024,0,0,0-5.10307-2.37475c-3.04549-.94464-6.17411-1.62783-9.28114-2.36443-2.40587-.57038-2.63572-.95192-.84684-2.74419a133.39681,133.39681,0,0,1,11.11192-10.55126,161.58225,161.58225,0,0,1,80.32041-34.307,241.72278,241.72278,0,0,1,32.89805-2.2523c18.23266.0775,36.21114,2.89275,54.05253,6.74223,25.886,5.58519,48.15151,17.98386,68.06126,35.0938,15.82481,13.59942,29.60179,29.09565,42.38106,45.52994,9.04159,11.62758,17.68991,23.5176,23.98864,36.92055,5.73824,12.21035,9.51244,24.92039,9.29929,38.57969-.00849.54507-.05411,1.08956-.054,1.08776-1.78583-5.93952-3.42883-12.43455-5.68723-18.70758-5.17908-14.38526-13.345-27.08087-23.17775-38.67114-6.14387-7.242-12.4373-14.40726-19.18979-21.07293q-43.32909-42.77187-103.15695-54.481a221.59829,221.59829,0,0,0-37.07631-3.96321c-24.7082-.67365-48.92184,1.92924-72.36867,10.084-10.89369,3.78878-21.36719,8.42657-30.9097,15.09393C156.99809,83.89028,153.21944,84.99376,149.77045,86.57Z"/><path class="f29f6812-4040-4925-8f87-bdcd5af3b340" d="M413.55539,415.483a80.65767,80.65767,0,0,1-12.43455-19.77143c-.66048-1.43773.13733-1.39244,1.18324-1.31368,3.18208.23963,6.37862.32783,9.5492.66579,2.117.22563,2.65809-.47534,2.27664-2.50944-.76463-4.07715-1.39938-8.18014-2.0073-12.2844a28.3807,28.3807,0,0,1-.09332-3.57715,117.16068,117.16068,0,0,0,20.89-35.01978c16.36211-41.75019,15.94344-83.62791.24654-125.43066A189.51138,189.51138,0,0,0,374.227,134.35958c-.48841-.39651-.916-.868-1.372-1.30449l.63124-.06464A141.55719,141.55719,0,0,1,400.23185,151.456c33.26483,28.55709,53.5098,64.71388,61.928,107.56817,6.73391,34.28017,3.99575,67.77394-9.54913,100.148A162.30614,162.30614,0,0,1,413.55539,415.483Z"/><path class="f29f6812-4040-4925-8f87-bdcd5af3b340" d="M378.6398,413.38434q13.627,4.90374,27.25429,9.80727c-27.87983,26.93506-60.10573,45.43956-98.94883,51.11417-35.69707,5.21494-70.99948,3.648-105.77151-6.34746-12.09784-3.47762-23.63481-8.31471-34.10761-15.4356-1.43685-.977-2.74725-2.14028-4.1162-3.21738l-.06215.04122a9.72552,9.72552,0,0,1,3.04327.91494c10.22645,7.48342,22.13888,10.57528,34.26023,12.68205,32.97961,5.732,65.79989,5.10138,98.14419-4.14537a196.17182,196.17182,0,0,0,78.75546-43.91636C377.62266,414.39972,378.12414,413.88422,378.6398,413.38434Z"/><path class="b21171df-41d9-4392-b417-83a0a93e3169" d="M115.60512,94.72272q1.40784,2.44572,2.81579,4.89159.29031.61477.58045,1.22928l-.03106-.12657q.28385.53629.56686,1.07227l-.06527-.13024q.26275.55163.52453,1.10278l.00254-.08963c-2.65936,4.26463-5.67373,8.352-7.90693,12.82971-5.23969,10.50591-10.16593,21.17088-15.06023,31.84444-.76939,1.67791-.58078,3.77046-1.0579,5.61351-.95358,3.68349-1.59141,7.54819-3.18828,10.9481-6.41593,13.6603-10.03137,28.10295-12.71138,42.84937a179.74835,179.74835,0,0,0-2.31943,39.15634c.19194,5.01143,1.01251,9.99846,1.53069,14.99826a5.60764,5.60764,0,0,1-.09307,1.07782c-.29651-.2246-.70067-.38887-.86714-.68638a11.72584,11.72584,0,0,1-.83874-1.97944A130.735,130.735,0,0,1,71.33712,225.982a180.07144,180.07144,0,0,1,5.82207-58.62359,190.10878,190.10878,0,0,1,36.05694-71.62772C113.69548,95.1379,114.79486,95.04743,115.60512,94.72272Z"/><path class="b21171df-41d9-4392-b417-83a0a93e3169" d="M118.87971,89.425q.82083,1.60218,1.64091,3.20344c-1.28028,1.14652-4.14219,1.35455-4.77947.1152-.2961-.57588.28079-1.89422.84824-2.5312C117.05782,89.68665,118.09472,89.66825,118.87971,89.425Z"/><path class="ac89386e-b999-4c81-8aef-dedc67ccf2d4" d="M210.47771,93.16122c2.64307,1.04656,5.29626,2.069,7.9167,3.16961.33485.14064.49894.68864.74215,1.04792a6.653,6.653,0,0,1-1.07827-.26479c-2.54706-1.08636-5.08515-2.19377-7.62606-3.2946Z"/><path class="f29f6812-4040-4925-8f87-bdcd5af3b340" d="M373.48623,132.99045l-.63124.06464-1.2458-.901Z"/><path class="b1b6c566-bd25-4e78-9cc6-1bc9e8c5cf2d" d="M203.91508,368.06156l-.365-.29168c.12065.09854.24129.1971.36091.29728Z"/><path class="f29f6812-4040-4925-8f87-bdcd5af3b340" d="M162.94994,449.30534a.83251.83251,0,0,1-.1372-.166c-.01014-.02079.05238-.07709.08169-.11716.00042.10668.00085.21335-.00269.32223C162.88779,449.34656,162.95,449.30534,162.94994,449.30534Z"/><path class="e58f73fc-efd8-47b0-b7fa-89d9b3941878" d="M359.92742,353.11237c-35.8203-2.72856-67.363-16.31106-96.72124-35.94731-22.83669-15.27436-42.71074-33.51773-58.08183-56.44924-7.18311-10.71618-12.79947-22.0641-15.05019-34.94671-4.97986-28.50416,16.13044-51.627,44.98125-49.06758a34.72519,34.72519,0,0,1,4.59773,1.028c-1.37568.47655-2.75652.93872-4.12614,1.43212-6.97307,2.512-14.19871,4.49326-20.86255,7.65873-15.04072,7.14463-19.66331,19.172-18.32485,34.42779,1.17991,13.44877,6.88627,25.19879,14.39889,36.11688,16.42787,23.8746,37.61493,42.76873,61.81631,58.40659,26.27073,16.97494,54.75435,28.83389,85.03622,36.46456.46143.11629.927.22364,1.37635.37718A8.05708,8.05708,0,0,1,359.92742,353.11237Z"/><path class="e58f73fc-efd8-47b0-b7fa-89d9b3941878" d="M260.02237,155.49485q-.39418,2.93527-.78836,5.8706c-1.66193-1.17805-3.67754-2.06758-4.91714-3.59012-3.26229-4.00693-6.19651-8.28223-9.23988-12.46636-.773-1.06279-.58893-1.53492.86158-1.77466,4.22579-.69851,4.22508-.77549,4.375-5.04687.06444-1.83642.05657-3.67529.10678-5.51234a7.21015,7.21015,0,0,1,.20461-1.12156c.40249.17226.962.23048,1.18263.53484,1.76561,2.4364,4.12187,4.698,5.04581,7.43615,1.6883,5.00349,2.51754,10.29744,3.70508,15.47023Z"/><path class="ac89386e-b999-4c81-8aef-dedc67ccf2d4" d="M151.78281,191.36524c-2.29881-1.76068-4.848-3.276-6.85229-5.32528-7.92311-8.10066-12.09564-18.10995-14.04374-29.1195-1.03963-5.87532-1.30588-11.84427.55122-17.57014,1.06516-3.28415,3.00072-6.2899,4.606-9.389.22328-.43106.80073-.67831,1.21424-1.01064a5.09341,5.09341,0,0,1,.33536,1.701,25.61356,25.61356,0,0,1-.92755,3.95385c-5.52471,16.85074-2.15574,32.32709,7.4202,46.72082,2.2816,3.42953,5.27513,6.38452,7.94122,9.55777Z"/><path class="e58f73fc-efd8-47b0-b7fa-89d9b3941878" d="M319.23012,332.765c-5.38275-.55615-9.878-1.56763-13.32283-5.10176-3.12959-3.21078-3.04215-7.50285.10177-10.14128,1.7295-1.45147,3.58829-1.73749,4.99478.23219,3.24509,4.54456,6.32729,9.20634,9.38324,13.881C320.45808,331.74372,319.43494,332.56888,319.23012,332.765Z"/><path class="e58f73fc-efd8-47b0-b7fa-89d9b3941878" d="M123.80875,243.49467c.43178-1.23054,1.09246-3.42308,1.97452-5.52244a2.51814,2.51814,0,0,1,3.50135-1.5648,3.88234,3.88234,0,0,1,1.53,2.77107c.31879,3.24934.29961,6.53019.52068,9.79138.18024,2.65879.60895,5.26122,3.062,6.96331.06612.04587-.19238.91183-.42158.9792-2.68652.78954-4.87085-.23928-6.64043-2.17405C124.71344,251.8717,124.01466,248.29141,123.80875,243.49467Z"/><path class="ac89386e-b999-4c81-8aef-dedc67ccf2d4" d="M240.64608,118.59842c.06095,3.18683-1.45116,4.39355-3.67984,3.19925a23.83712,23.83712,0,0,1-5.08906-3.84839c-1.94917-1.86636-3.65949-3.9831-5.46338-6.00033a5.83109,5.83109,0,0,1-.4853-.73611c.19975-.07146.41071-.227.5976-.20207,4.794.64071,9.46856,1.63356,12.94923,5.3765A7.9267,7.9267,0,0,1,240.64608,118.59842Z"/><path class="e58f73fc-efd8-47b0-b7fa-89d9b3941878" d="M177.91405,175.95168q-1.57376-.37694-3.14752-.75384a19.169,19.169,0,0,1,1.89418-2.33845,63.42391,63.42391,0,0,1,6.51718-5.53445c.87049-.59963,3.27261-.63125,3.514-.16435.63742,1.23282,1.07618,3.18118.51521,4.30535-1.57614,3.15858-4.82662,3.8407-8.05493,4.24224a9.71484,9.71484,0,0,1-1.19058.00663Z"/><path class="ac89386e-b999-4c81-8aef-dedc67ccf2d4" d="M325.24233,313.50723c1.40237.61892,2.61314.84619,3.39246,1.55129,3.10626,2.81034,6.08276,5.76474,9.08762,8.68607.17213.16734.16944.51482.24807.77847a1.74156,1.74156,0,0,1-.67672.04162c-3.52467-1.33937-7.26111-2.32935-10.45639-4.2295-1.35206-.804-1.61248-3.51415-2.24583-5.39939C324.47926,314.60152,324.97405,314.06291,325.24233,313.50723Z"/><path class="ac89386e-b999-4c81-8aef-dedc67ccf2d4" d="M370.63624,345.30674c-2.04087-.25788-4.11767-.35856-6.11314-.81527-2.25478-.51616-3.48642-2.40187-2.89369-4.20334.69147-2.10147,2.70283-2.11807,4.18131-1.69124a35.7652,35.7652,0,0,1,6.19326,2.92988,20.83173,20.83173,0,0,1,2.4016,1.55375c.66115.46582,1.281.99039,1.91907,1.489a19.96734,19.96734,0,0,1-2.32578.41368c-1.10777.07138-2.22352.01819-3.33589.01819Z"/><path class="ac89386e-b999-4c81-8aef-dedc67ccf2d4" d="M346.37969,342.043c-2.01295-.43463-4.05495-.76972-6.02632-1.34667a4.5412,4.5412,0,0,1-2.583-1.58594,23.42022,23.42022,0,0,1-1.538-4.509c1.33982.06418,2.96005-.33345,3.967.279,3.04349,1.85129,5.85108,4.09172,8.72663,6.21307.0419.031-.20335.68624-.35268.70261a19.74345,19.74345,0,0,1-2.14651.03474Z"/><path class="ac89386e-b999-4c81-8aef-dedc67ccf2d4" d="M224.9332,146.25522c-1.32364,2.229-2.23362,4.90568-4.0571,6.5937-3.79266,3.51091-8.06247,6.50683-12.16078,9.68259a3.33071,3.33071,0,0,1-1.21318.31479c.00369-.37336-.12491-.82087.035-1.10667a9.79723,9.79723,0,0,1,1.87022-2.87073c5.14994-4.26185,10.39326-8.4107,15.60545-12.59719Z"/><path class="ac89386e-b999-4c81-8aef-dedc67ccf2d4" d="M210.24021,99.3703a33.9264,33.9264,0,0,1,5.70007,1.54148,7.54822,7.54822,0,0,1,2.89338,2.94524,2.518,2.518,0,0,1-.53134,2.25263c-.48017.527-1.71857,1.02888-2.19965.765a24.52213,24.52213,0,0,1-4.34-3.16886,27.57559,27.57559,0,0,1-2.665-3.04631c-.28318-.33649-.5146-.71662-.76969-1.07679Z"/><path class="ac89386e-b999-4c81-8aef-dedc67ccf2d4" d="M142.93835,241.83588a10.16315,10.16315,0,0,1,.10706-1.18489c.10939-.538.28068-1.06343.42548-1.59424.351.46877.73138.91854,1.04817,1.40943q3.195,4.95112,6.36763,9.91671c.116.18084.237.35858.35561.53775-.2809.10774-.64334.38615-.83.29675-1.78977-.85691-4.05628-1.36869-5.18957-2.78073-1.39922-1.74344-1.84923-4.25013-2.7094-6.427Z"/><path class="ac89386e-b999-4c81-8aef-dedc67ccf2d4" d="M162.63532,182.88748c-1.46157-.44912-3.73873-1.14466-6.01154-1.85424a3.18905,3.18905,0,0,1-.59424-.33557c.22356-.208.41572-.5379.67556-.60495a68.94058,68.94058,0,0,1,6.94993-1.6534c1.68926-.25261,3.93354.10835,3.92191,2.10706C167.56492,182.612,165.37621,182.917,162.63532,182.88748Z"/><path class="ac89386e-b999-4c81-8aef-dedc67ccf2d4" d="M215.325,114.19082c4.22484.14541,7.227,2.23045,8.29483,5.28641.67529,1.93245-.153,2.46681-1.753,1.867a15.90776,15.90776,0,0,1-4.06824-2.35145,20.30923,20.30923,0,0,1-2.75551-2.98623c-.42915-.50136-.76591-1.08194-1.14449-1.62667Z"/><path class="ac89386e-b999-4c81-8aef-dedc67ccf2d4" d="M176.02959,272.3426c-4.26261.02426-7.61878-2.49423-8.08354-5.90451-.12412-.91087-.13834-2.13234,1.22178-1.25364,2.98732,1.93,5.83256,4.08085,8.71037,6.17658.07915.05764-.08022.71517-.21562.74962A11.785,11.785,0,0,1,176.02959,272.3426Z"/><path class="ac89386e-b999-4c81-8aef-dedc67ccf2d4" d="M154.24226,279.98426a8.89059,8.89059,0,0,1-11.763-8.9988,3.25394,3.25394,0,0,1,.28886-.79145,2.73828,2.73828,0,0,1,.70981.53893c.83783,1.26552,1.63611,2.55732,2.44815,3.83995C147.75124,277.45579,150.05776,279.65919,154.24226,279.98426Z"/><path class="ac89386e-b999-4c81-8aef-dedc67ccf2d4" d="M165.10543,172.68042q-2.85761-.65255-5.7152-1.30512c1.78282-1.0549,3.54735-2.14311,5.36119-3.14157a3.37763,3.37763,0,0,1,1.62265-.30268c1.40809.02269,3.20911-.15854,3.28866,1.80524.07315,1.80573-1.41714,2.50957-3.07562,2.66931-.4721.04547-.95229.007-1.42877.007Z"/><path class="ac89386e-b999-4c81-8aef-dedc67ccf2d4" d="M358.27655,326.5006c-4.37273.04756-7.67479-1.29921-9.95312-4.71641a6.83956,6.83956,0,0,1-.57275-1.92229,8.95249,8.95249,0,0,1,1.66705.67823C352.27517,322.42651,355.103,324.3578,358.27655,326.5006Z"/><path class="ac89386e-b999-4c81-8aef-dedc67ccf2d4" d="M199.64443,103.74637c1.84107,1.23727,3.7059,2.44179,5.49929,3.74478.291.21144.26547.85942.38624,1.30561-.45793.04967-1.04709.3078-1.35252.11518-1.98216-1.25009-3.9075-2.59115-5.83332-3.92862-.14551-.10105-.15022-.40524-.22038-.615l1.16034-.13683Z"/><path class="ac89386e-b999-4c81-8aef-dedc67ccf2d4" d="M225.05542,101.38873a39.46238,39.46238,0,0,1,3.09058,3.90855c.10852.17514-.97277,1.08894-1.50337,1.66087-.76447-1.28142-1.55989-2.54634-2.26015-3.862C224.277,102.89792,224.61575,102.4628,225.05542,101.38873Z"/><path class="b47ebc04-95d4-4781-9ac6-2da64148f3b1" d="M144.75275,84.06382q.748.34363,1.49609.68739Q145.5009,84.40762,144.75275,84.06382Z"/><path class="b47ebc04-95d4-4781-9ac6-2da64148f3b1" d="M119.99642,102.76183q-.262-.55128-.52453-1.10278Q119.73369,102.21018,119.99642,102.76183Z"/><path class="b47ebc04-95d4-4781-9ac6-2da64148f3b1" d="M119.53716,101.78929q-.28322-.53605-.56686-1.07227Q119.25331,101.253,119.53716,101.78929Z"/><path class="b47ebc04-95d4-4781-9ac6-2da64148f3b1" d="M119.00135,100.84359q-.29016-.61458-.58044-1.22928Q118.711,100.2288,119.00135,100.84359Z"/><path class="b47ebc04-95d4-4781-9ac6-2da64148f3b1" d="M187.48759,135.36845l.29577.2922q-.29456.003-.58931.0066A3.32245,3.32245,0,0,1,187.48759,135.36845Z"/><path class="ac89386e-b999-4c81-8aef-dedc67ccf2d4" d="M225.0128,146.27173l-.11846.10731s.0296-.11425.03422-.119A.44915.44915,0,0,1,225.0128,146.27173Z"/></svg>