<svg id="a8b80c7f-cf6b-49dd-8a6e-b22177aa7e58" data-name="Layer 1" xmlns="http://www.w3.org/2000/svg" viewBox="0 0 62.98197 62.22088"><defs><style>.b80b3c4a-2f8b-44a3-ad32-aca6ea7e8e59{fill:#fff;}.a0058809-c7db-431b-bc6d-98db7349195e,.a0138a36-0fed-48b8-bd33-d246c628dcce,.fc54ecad-aa80-4f41-8226-e466f4eb0e09{fill:none;stroke:#fff;stroke-miterlimit:10;}.fc54ecad-aa80-4f41-8226-e466f4eb0e09{stroke-width:2px;}.a0058809-c7db-431b-bc6d-98db7349195e{stroke-width:2.22366px;}.a0138a36-0fed-48b8-bd33-d246c628dcce{stroke-width:2.36461px;}</style></defs><path class="b80b3c4a-2f8b-44a3-ad32-aca6ea7e8e59" d="M12.92094,17.2309a7.94427,7.94427,0,1,0,8.79468,6.58154A35.91462,35.91462,0,0,1,12.92094,17.2309Z"/><path class="fc54ecad-aa80-4f41-8226-e466f4eb0e09" d="M10.20072,14.18744A11.49475,11.49475,0,1,0,25.40995,25.34906C16.50736,22.5014,10.22733,14.2226,10.20072,14.18744Z"/><path class="b80b3c4a-2f8b-44a3-ad32-aca6ea7e8e59" d="M49.471,17.2309a7.94433,7.94433,0,1,1-8.79468,6.58154A35.91462,35.91462,0,0,0,49.471,17.2309Z"/><path class="fc54ecad-aa80-4f41-8226-e466f4eb0e09" d="M52.1912,14.18744A11.49475,11.49475,0,1,1,36.982,25.34906C45.88456,22.5014,52.16459,14.2226,52.1912,14.18744Z"/><path class="fc54ecad-aa80-4f41-8226-e466f4eb0e09" d="M10.19913,14.18535S19.34646,26.28561,31.232,26.30267c10.08334.01448,16-7.15277,30.08334-21.65277"/><path class="fc54ecad-aa80-4f41-8226-e466f4eb0e09" d="M31.00932,18.749a5.6147,5.6147,0,0,0-5.59938,5.84538c0,.23877.23356.60828.26261.83923a15.76471,15.76471,0,0,0,5.55942.8691,18.575,18.575,0,0,0,5.666-.833,5.60571,5.60571,0,0,0,.084-.9292A5.88408,5.88408,0,0,0,31.00932,18.749Z"/><path class="fc54ecad-aa80-4f41-8226-e466f4eb0e09" d="M19.89864,17.2309s10.36885-10.51582,22.58333,0"/><path class="a0058809-c7db-431b-bc6d-98db7349195e" d="M15.89864,12.886s14.375-13.95834,30.58333,0"/><path class="a0138a36-0fed-48b8-bd33-d246c628dcce" d="M11.81531,9.136s18.77082-17.89584,38.41666,0"/><polygon class="b80b3c4a-2f8b-44a3-ad32-aca6ea7e8e59" points="28.232 31.553 34.399 31.553 31.19 36.559 28.232 31.553"/><path class="b80b3c4a-2f8b-44a3-ad32-aca6ea7e8e59" d="M59.06531,3.80267,62.982,2.636l-.75,4.02777S61.31531,4.136,59.06531,3.80267Z"/><path class="b80b3c4a-2f8b-44a3-ad32-aca6ea7e8e59" d="M5.58981,55.468a1.98018,1.98018,0,0,1,.10352.66016v3.73535H5.00387V56.11932q0-1.10742-1.48535-1.10742-.65625,0-1.44824.04492l-.291.01758v-.58594q.96681-.06153,1.77051-.0625a3.11871,3.11871,0,0,1,1.32129.24316A1.35,1.35,0,0,1,5.58981,55.468ZM2.46872,59.86346H1.77926v-3.416h.68946Z"/><path class="b80b3c4a-2f8b-44a3-ad32-aca6ea7e8e59" d="M7.98044,54.48455a3.46943,3.46943,0,0,1,.65429-.05859,2.34677,2.34677,0,0,1,.64258.084,1.6304,1.6304,0,0,1,.86524.55371,1.94727,1.94727,0,0,1,.25781.39844,2.671,2.671,0,0,1,.16015.4375,3.05561,3.05561,0,0,1,.11133.82617v.90918a3.46208,3.46208,0,0,1-.04492.53711,2.84794,2.84794,0,0,1-.11914.49414,2.33994,2.33994,0,0,1-.22754.4541,1.69447,1.69447,0,0,1-.36523.419,1.80114,1.80114,0,0,1-.54981.28906,2.17154,2.17154,0,0,1-.71875.11817,5.33936,5.33936,0,0,1-.666-.03711,2.38181,2.38181,0,0,1-.40821-.07911l-.11718-.0371v-.623a3.88925,3.88925,0,0,0,1.1914.1748,1.35908,1.35908,0,0,0,.459-.07324,1.07988,1.07988,0,0,0,.33984-.18457,1.1864,1.1864,0,0,0,.23926-.27344,1.53019,1.53019,0,0,0,.15722-.31543,2.29821,2.29821,0,0,0,.08789-.32812,2.76487,2.76487,0,0,0,.05372-.54785v-.81348a2.85808,2.85808,0,0,0-.11622-.87988,1.71913,1.71913,0,0,0-.15136-.32813,1.10453,1.10453,0,0,0-.23926-.29,1.12733,1.12733,0,0,0-.35449-.19531,1.53792,1.53792,0,0,0-.52344-.0791,3.49173,3.49173,0,0,0-.59961.05176,2.08677,2.08677,0,0,0-.41894.10644l-.125.05371V54.634a1.13892,1.13892,0,0,1,.13281-.05762A3.00509,3.00509,0,0,1,7.98044,54.48455Z"/><path class="b80b3c4a-2f8b-44a3-ad32-aca6ea7e8e59" d="M12.08688,54.45525q.58008-.02929,1.042-.02929a4.37449,4.37449,0,0,1,.76563.05664,2.316,2.316,0,0,1,.57031.18066,1.45661,1.45661,0,0,1,.44824.31934,1.62756,1.62756,0,0,1,.38575,1.14551v3.73535h-.68848V56.11932q0-1.10742-1.48633-1.10742-.44824,0-1.03711.02929Z"/><path class="b80b3c4a-2f8b-44a3-ad32-aca6ea7e8e59" d="M20.872,54.50994v.47266a1.11423,1.11423,0,0,0-.85449,1.19531v3.68555h-.68946V56.17791a1.63594,1.63594,0,0,1,.0586-.45019,1.04494,1.04494,0,0,1,.14062-.32129.96907.96907,0,0,1,.30762-.31153l.05762-.02929V55.0451H16.96286v-.53516Z"/><path class="b80b3c4a-2f8b-44a3-ad32-aca6ea7e8e59" d="M26.39645,55.468a1.98018,1.98018,0,0,1,.10352.66016v3.73535h-.68946V56.11932q0-1.10742-1.48535-1.10742-.65625,0-1.44824.04492l-.291.01758v-.58594q.96681-.06153,1.77051-.0625a3.11871,3.11871,0,0,1,1.32129.24316A1.35,1.35,0,0,1,26.39645,55.468Zm-3.12109,4.39551H22.5859v-3.416h.68946Z"/><path class="b80b3c4a-2f8b-44a3-ad32-aca6ea7e8e59" d="M32.46286,55.468a1.98019,1.98019,0,0,1,.10351.66016v3.73535h-.68945V56.11932q0-1.10742-1.48535-1.10742-.65625,0-1.44824.04492l-.291.01758v-.58594q.96679-.06153,1.77051-.0625a3.11877,3.11877,0,0,1,1.32129.24316A1.35,1.35,0,0,1,32.46286,55.468Zm-3.1211,4.39551h-.68945v-3.416h.68945Z"/><path class="b80b3c4a-2f8b-44a3-ad32-aca6ea7e8e59" d="M39.9443,59.92205a1.71173,1.71173,0,0,1-.41406-.05859V59.2951c.20117.02734.31348.041.33594.041q.59327,0,.59375-.70507V55.09l-.58594.05469v-.58594a18.22845,18.22845,0,0,1,2.02539-.13281,2.91966,2.91966,0,0,1,1.24512.2373,1.36312,1.36312,0,0,1,.73047.80469,1.95521,1.95521,0,0,1,.10449.66016v3.73535H43.2861V56.11932q0-1.10742-1.48242-1.10742-.18165,0-.65528.02441v3.499a1.572,1.572,0,0,1-.29882,1.02149A1.10219,1.10219,0,0,1,39.9443,59.92205Z"/><path class="b80b3c4a-2f8b-44a3-ad32-aca6ea7e8e59" d="M46.07809,58.05389v-3.544h.68848v2.83789l-.54785.70606Z"/><path class="b80b3c4a-2f8b-44a3-ad32-aca6ea7e8e59" d="M48.80856,58.05389v-3.544H49.497v2.83789l-.54785.70606Z"/><path class="b80b3c4a-2f8b-44a3-ad32-aca6ea7e8e59" d="M51.10641,54.45525q.58008-.02929,1.042-.02929a4.37441,4.37441,0,0,1,.76563.05664,2.316,2.316,0,0,1,.57031.18066,1.45661,1.45661,0,0,1,.44824.31934,1.62756,1.62756,0,0,1,.38575,1.14551v3.73535h-.68848V56.11932q0-1.10742-1.48633-1.10742-.44825,0-1.03711.02929Z"/><path class="b80b3c4a-2f8b-44a3-ad32-aca6ea7e8e59" d="M59.165,59.72283v.14063h-.68457v-.14063a3.43129,3.43129,0,0,1,.13769-.82422q.13623-.52147.19922-.74511.12012-.46143.30664-1.0791l.59375-2.03321h-3.25v-.53125h3.93848v.53125l-.62207,2.11621c-.07227.25489-.13184.46387-.17871.62891-.04688.16406-.09375.332-.14161.502-.04687.16992-.085.31739-.11523.44239-.03125.124-.06152.2539-.0918.38964A3.10343,3.10343,0,0,0,59.165,59.72283Zm-2.00782,2.18653h-.68554v-5.2461h.68554Z"/><path class="b80b3c4a-2f8b-44a3-ad32-aca6ea7e8e59" d="M4.03024,43.84686h3.502v1.27246L6.61911,48.218l.00586-.00488L6.039,50.80193H3.98727l.60645-2.6582.80078-2.69141H1.94626V42.47186h2.084Z"/><path class="b80b3c4a-2f8b-44a3-ad32-aca6ea7e8e59" d="M9.9111,42.96014h1.49219q-.34863,1.62744-.52539,3.13086H9.04l-.08008-.11719A20.10663,20.10663,0,0,1,9.9111,42.96014Zm2.73828,0h1.48828q-.34863,1.64941-.52148,3.13086H11.78024l-.081-.11719A20.2478,20.2478,0,0,1,12.64938,42.96014Z"/><path class="b80b3c4a-2f8b-44a3-ad32-aca6ea7e8e59" d="M16.123,48.55193V43.84686h2.084V47.091l-1.1543,1.46093Z"/><path class="b80b3c4a-2f8b-44a3-ad32-aca6ea7e8e59" d="M23.46481,43.80877a5.59711,5.59711,0,0,1,.86231-.06934,3.2503,3.2503,0,0,1,.80273.09864,1.96863,1.96863,0,0,1,.709.33886,1.71549,1.71549,0,0,1,.50977.64161,5.71384,5.71384,0,0,1,.39844,2.41113,4.08794,4.08794,0,0,1-.81153,2.71,2.844,2.844,0,0,1-2.30371.96387,2.77872,2.77872,0,0,1-1.16894-.249,2.80879,2.80879,0,0,1-.94824-.71191,3.32891,3.32891,0,0,1-.63282-1.16309,4.917,4.917,0,0,1-.23144-1.5498V43.84686h2.08886v3.38281q0,2.00976.94043,2.00976a.77906.77906,0,0,0,.73047-.47558,3.55436,3.55436,0,0,0,.24121-1.52051,3.48532,3.48532,0,0,0-.209-1.45019.74283.74283,0,0,0-.71973-.40528l-.25781.02735Z"/><path class="b80b3c4a-2f8b-44a3-ad32-aca6ea7e8e59" d="M34.73922,43.85174a19.12513,19.12513,0,0,1,1.93165-.11231,8.28625,8.28625,0,0,1,1.31054.08008,2.60772,2.60772,0,0,1,.79492.252,2.14357,2.14357,0,0,1,.52637.38671,1.43491,1.43491,0,0,1,.31641.53516,3.1536,3.1536,0,0,1,.15039.63867,6.04062,6.04062,0,0,1,.04.75489v4.415h-2.084v-4.415a.92284.92284,0,0,0-1.05273-1.03614q-.79395,0-1.9336.11719Z"/><path class="b80b3c4a-2f8b-44a3-ad32-aca6ea7e8e59" d="M44.42184,50.80193h-2.084V43.84686h2.084Z"/><path class="b80b3c4a-2f8b-44a3-ad32-aca6ea7e8e59" d="M52.19919,43.84686v1.4707a1.58753,1.58753,0,0,0-.7168.46484,1.43621,1.43621,0,0,0-.19141.83594v4.18359H49.207V46.58025a1.40723,1.40723,0,0,1,.5-1.12793H46.37106V43.84686Z"/><path class="b80b3c4a-2f8b-44a3-ad32-aca6ea7e8e59" d="M55.83493,43.84686a1.87843,1.87843,0,0,1,.24121.709h.07519a1.83207,1.83207,0,0,1,.30664-.2666,3.14156,3.14156,0,0,1,.4209-.26563,2.7661,2.7661,0,0,1,.53711-.19629,3.03287,3.03287,0,0,1,.77344-.08789,2.31308,2.31308,0,0,1,.84863.15821,1.82555,1.82555,0,0,1,.66407.42676,1.97153,1.97153,0,0,1,.41308.67675,5.242,5.242,0,0,1,.28418,1.88477v3.916H57.03805V49.19647h1.24024V46.88592a3.90985,3.90985,0,0,0-.06153-.82129,1.09055,1.09055,0,0,0-.15332-.38184.7384.7384,0,0,0-.65039-.28906.95136.95136,0,0,0-.36523.07227,1.00373,1.00373,0,0,0-.29492.17968,1.85558,1.85558,0,0,0-.34961.38672l-.043.0752L55.958,50.80193H53.90622l.40332-4.39355q.03662-.38672.03711-.71387a5.421,5.421,0,0,0-.33789-1.84765Z"/></svg>