<?xml version="1.0" encoding="utf-8"?>
<!-- Generator: Adobe Illustrator 24.1.2, SVG Export Plug-In . SVG Version: 6.00 Build 0)  -->
<svg version="1.1" id="Layer_1" xmlns="http://www.w3.org/2000/svg" xmlns:xlink="http://www.w3.org/1999/xlink" x="0px" y="0px"
	 viewBox="0 0 337 320.1" style="enable-background:new 0 0 337 320.1;" xml:space="preserve">
<style type="text/css">
	.st0{clip-path:url(#SVGID_2_);}
	.st1{clip-path:url(#SVGID_4_);}
	.st2{fill:url(#SVGID_5_);}
	.st3{fill:#FFFFFF;}
</style>
<g id="a96a3595-f57c-4cdc-bb55-b33b9a32b01c">
	<g id="a1f42d84-8379-4446-888d-d248b49dd176">
		<g>
			<defs>
				<path id="SVGID_1_" d="M25.1,0h286.8C325.8,0,337,11.2,337,25.1v269.8c0,13.9-11.2,25.1-25.1,25.1H25.1
					C11.2,320,0,308.8,0,294.9V25.1C0,11.2,11.2,0,25.1,0z"/>
			</defs>
			<clipPath id="SVGID_2_">
				<use xlink:href="#SVGID_1_"  style="overflow:visible;"/>
			</clipPath>
			<g class="st0">
				<g>
					<defs>
						<rect id="SVGID_3_" y="1" width="337" height="319"/>
					</defs>
					<clipPath id="SVGID_4_">
						<use xlink:href="#SVGID_3_"  style="overflow:visible;"/>
					</clipPath>
					<g class="st1">
						
							<image style="overflow:visible;enable-background:new    ;" width="942" height="559" xlink:href="49106052.png"  transform="matrix(0.571 0 0 0.5674 -107.7709 1.9655)">
						</image>
					</g>
				</g>
				
					<linearGradient id="SVGID_5_" gradientUnits="userSpaceOnUse" x1="168.5" y1="-63.4932" x2="168.5" y2="379.2594" gradientTransform="matrix(1 0 0 -1 0 319.8898)">
					<stop  offset="0" style="stop-color:#B84F5C"/>
					<stop  offset="0.1403" style="stop-color:#B84F5C"/>
					<stop  offset="1" style="stop-color:#B84F5C"/>
				</linearGradient>
				<rect y="0" class="st2" width="337" height="320"/>
				<path class="st3" d="M520.8,272.7c1.5,1.6,2.2,3.7,2.1,5.8v12.7h-5.3l0-13.2c0.1-0.8-0.2-1.7-0.7-2.4c-0.5-0.6-1.3-0.8-2.1-0.8
					h-2.6c-0.2,0.7-0.3,1.4-0.4,2.1c-0.1,0.7-0.1,1.4-0.1,2.1v5.9c0,1.2-0.2,2.4-0.7,3.5c-0.5,1-1.2,1.7-2.1,2.2
					c-1,0.5-2.2,0.8-3.3,0.8c-0.9,0-1.7-0.1-2.6-0.2v-4.1c0.5,0,0.9,0,1.1,0c1.7,0,2.5-0.9,2.5-2.6v-5c0-0.8,0.1-1.6,0.3-2.5
					c0.2-0.8,0.5-1.5,0.9-2.2h-3.2v-4.2h10.4C517.4,270.8,519.4,271.4,520.8,272.7z"/>
				<path class="st3" d="M529.2,275H526v-4.2h8.6v11.7h-5.4V275z"/>
				<path class="st3" d="M541.1,279.7c0.1-0.9,0.3-1.8,0.7-2.6c0.3-0.7,0.7-1.4,1.2-2c0.1-0.1,0.1-0.1,0.2-0.2l0-0.1
					c-0.5,0.1-1.1,0.2-1.6,0.4c-0.5,0.1-1.1,0.3-1.6,0.5l-1.1-3.9c1.5-0.5,3.1-0.9,4.6-1.2c1.7-0.3,3.3-0.4,5-0.5
					c3.1,0,5.5,0.8,7.1,2.4c1.6,1.6,2.4,3.9,2.5,7v11.6h-9v-4.2h3.6l0-8.2c0.1-1.1-0.2-2.2-0.8-3.2c-0.5-0.7-1.4-1.2-2.3-1.1
					c-0.9,0-1.7,0.4-2.3,1.1c-0.6,1-1,2.1-1,3.3l-1.2,12.2h-5.3L541.1,279.7z"/>
				<path class="st3" d="M574.2,282.2l4.6,6.6v2.4h-16.2v-4.2h9.3l-11-16.3h6l4.2,6.7l3.1-6.7h6L574.2,282.2z"/>
				<path class="st3" d="M600.2,270.8v11.7c0.1,1.8-0.4,3.5-1.2,5c-0.8,1.4-2,2.5-3.5,3.1c-1.6,0.7-3.4,1.1-5.2,1.1
					c-2.8,0-5.5-0.5-8.1-1.5l1.1-3.9c1.5,0.6,3.1,1,4.7,1.3c-0.4-0.4-0.8-0.8-1.1-1.3c-0.3-0.5-0.5-1-0.6-1.6l-3.2-13.9h5.4l3,14.5
					c0.1,0.7,0.4,1.4,0.7,2.1c0.8-0.3,1.6-0.9,2-1.7c0.5-0.9,0.7-1.8,0.7-2.8v-12H600.2z"/>
				<path class="st3" d="M630,272.7c1.5,1.6,2.2,3.7,2.1,5.8v12.7h-5.3l0-13.2c0.1-0.8-0.2-1.7-0.7-2.4c-0.5-0.6-1.3-0.8-2.1-0.8
					h-2.6c-0.2,0.7-0.3,1.4-0.4,2.1c-0.1,0.7-0.1,1.4-0.1,2.1v5.9c0,1.2-0.2,2.4-0.7,3.5c-0.5,1-1.2,1.7-2.1,2.2
					c-1,0.5-2.2,0.8-3.3,0.8c-0.9,0-1.7-0.1-2.6-0.2v-4.1c0.5,0,0.9,0,1.1,0c1.7,0,2.5-0.9,2.5-2.6v-5c0-0.8,0.1-1.6,0.3-2.5
					c0.2-0.8,0.5-1.5,0.9-2.2h-3.2v-4.2h10.4C626.5,270.8,628.6,271.4,630,272.7z"/>
				<path class="st3" d="M653,270.8v4.2h-3.6v16.3H644V275h-8.7v-4.2H653z"/>
				<path class="st3" d="M658.2,275H655v-4.2h8.6v11.7h-5.4V275z"/>
				<path class="st3" d="M670.1,279.7c0.1-0.9,0.3-1.8,0.7-2.6c0.3-0.7,0.7-1.4,1.2-2c0.1-0.1,0.1-0.1,0.2-0.2l0-0.1
					c-0.5,0.1-1.1,0.2-1.6,0.4c-0.5,0.1-1.1,0.3-1.6,0.5l-1.1-3.9c1.5-0.5,3.1-0.9,4.6-1.2c1.7-0.3,3.3-0.4,5-0.5
					c3.1,0,5.5,0.8,7.1,2.4c1.6,1.6,2.4,3.9,2.5,7v11.6h-9v-4.2h3.6l0-8.2c0.1-1.1-0.2-2.2-0.8-3.2c-0.5-0.7-1.4-1.2-2.3-1.1
					c-0.9,0-1.7,0.4-2.3,1.1c-0.6,1-1,2.1-1,3.3l-1.2,12.2h-5.3L670.1,279.7z"/>
				<path class="st3" d="M707.3,274.2l-6.8,17.1h-5.7l6.7-16.3h-11V265h5.4v5.8h11.4V274.2z"/>
			</g>
		</g>
		<path class="st3" d="M94.7,161c1.5,1.6,2.2,3.7,2.1,5.8v12.7h-5.3l0-13.2c0.1-0.8-0.2-1.7-0.7-2.4c-0.5-0.6-1.3-0.8-2.1-0.8H86
			c-0.2,0.7-0.3,1.4-0.4,2.1c-0.1,0.7-0.1,1.4-0.1,2.1v5.9c0,1.2-0.2,2.4-0.7,3.5c-0.5,1-1.2,1.7-2.1,2.2c-1,0.5-2.2,0.8-3.3,0.8
			c-0.9,0-1.7-0.1-2.6-0.2v-4.1c0.5,0,0.9,0,1.1,0c1.7,0,2.5-0.9,2.5-2.6v-5c0-0.8,0.1-1.6,0.3-2.5c0.2-0.8,0.5-1.5,0.9-2.2h-3.2
			V159h10.4C91.3,159,93.3,159.7,94.7,161z"/>
		<path class="st3" d="M102.2,163.2h-1.8V159h7.2v20.5h-5.4V163.2z"/>
		<path class="st3" d="M113.1,159h8.9c2.7,0,4.7,0.7,6.1,2c1.5,1.6,2.2,3.7,2.1,5.8v12.7h-5.3l0-13.2c0-2.1-0.9-3.1-2.8-3.1h-3.6
			v16.3h-5.4L113.1,159z"/>
		<path class="st3" d="M135.6,163.2h-1.8V159h7.2v20.5h-5.4V163.2z"/>
		<path class="st3" d="M147.7,168c0.1-0.9,0.3-1.8,0.7-2.6c0.3-0.7,0.7-1.4,1.2-2c0.1-0.1,0.1-0.1,0.2-0.2l0-0.1
			c-0.5,0.1-1.1,0.2-1.6,0.4c-0.5,0.1-1.1,0.3-1.6,0.5l-1.1-3.9c1.5-0.5,3.1-0.9,4.6-1.2c1.7-0.3,3.3-0.4,5-0.5
			c3.1,0,5.5,0.8,7.1,2.4c1.6,1.6,2.4,3.9,2.5,7v11.6h-9v-4.2h3.6l0-8.2c0.1-1.1-0.2-2.2-0.8-3.2c-0.5-0.7-1.4-1.2-2.3-1.1
			c-0.9,0-1.7,0.4-2.3,1.1c-0.6,1-1,2.1-1,3.3l-1.2,12.2h-5.3L147.7,168z"/>
		<path class="st3" d="M185.5,166c0.1-0.8-0.2-1.5-0.8-2.1c-0.6-0.5-1.4-0.8-2.2-0.7h-6.2V159h6.6c1.5,0,2.9,0.3,4.3,0.9
			c1.1,0.5,2.1,1.4,2.7,2.5c0.7,1.2,1,2.5,0.9,3.9v13.3h-5.4L185.5,166z"/>
		<path class="st3" d="M196.2,163.2h-1.8V159h7.2v20.5h-5.4V163.2z"/>
		<path class="st3" d="M223.5,159v11.7c0.1,1.8-0.4,3.5-1.2,5c-0.8,1.4-2,2.5-3.5,3.1c-1.6,0.7-3.4,1.1-5.2,1.1
			c-2.8,0-5.5-0.5-8.1-1.5l1.1-3.9c1.5,0.6,3.1,1,4.7,1.3c-0.4-0.4-0.8-0.8-1.1-1.3c-0.3-0.5-0.5-1-0.6-1.6l-3.2-13.9h5.4l3,14.5
			c0.1,0.7,0.4,1.4,0.7,2.1c0.8-0.3,1.6-0.9,2-1.7c0.5-0.9,0.7-1.8,0.7-2.8v-12H223.5z"/>
		<path class="st3" d="M230.4,163.2h-3.2V159h8.6v11.7h-5.4V163.2z"/>
		<path class="st3" d="M245.2,178.7c-1.4-0.8-2.5-2-3.2-3.4c-0.8-1.6-1.2-3.3-1.2-5v-1.2c0-1.1,0.2-2.1,0.6-3.1
			c0.3-0.9,0.8-1.8,1.4-2.5c0.1-0.1,0.2-0.2,0.3-0.3l0-0.1c-0.4,0.1-1.3,0.3-2.6,0.6l-1-3.9c1.6-0.4,3.2-0.8,4.8-1
			c1.7-0.2,3.4-0.4,5.1-0.4c3.2,0,5.6,0.8,7.3,2.5c1.7,1.7,2.6,4.1,2.6,7.3v2c0,1.7-0.4,3.5-1.1,5c-0.7,1.4-1.8,2.6-3.2,3.4
			c-1.5,0.8-3.1,1.2-4.8,1.2C248.3,180,246.6,179.5,245.2,178.7z M251.9,174.9c0.6-0.5,1.1-1.1,1.4-1.8c0.3-0.9,0.5-1.8,0.5-2.7
			v-1.9c0.1-1.4-0.3-2.9-1-4.1c-0.6-0.9-1.7-1.5-2.9-1.4c-1.1,0-2.2,0.5-2.8,1.5c-0.7,1.3-1.1,2.8-1,4.3v1.6c0,0.9,0.1,1.8,0.5,2.7
			c0.3,0.7,0.7,1.3,1.4,1.8C249.1,175.7,250.7,175.7,251.9,174.9z"/>
	</g>
</g>
</svg>
