<?xml version="1.0" encoding="utf-8"?>
<!-- Generator: Adobe Illustrator 24.1.2, SVG Export Plug-In . SVG Version: 6.00 Build 0)  -->
<svg version="1.1" id="Layer_1" xmlns="http://www.w3.org/2000/svg" xmlns:xlink="http://www.w3.org/1999/xlink" x="0px" y="0px"
	 viewBox="0 0 337 320.1" style="enable-background:new 0 0 337 320.1;" xml:space="preserve">
<style type="text/css">
	.st0{clip-path:url(#SVGID_2_);}
	.st1{clip-path:url(#SVGID_4_);}
	.st2{fill:url(#SVGID_5_);}
	.st3{fill:#FFFFFF;}
</style>
<g id="a7255327-06ba-49b6-b528-79de79e196b0">
	<g id="e9578fef-9e60-47d5-a907-81fffad5ecf9">
		<g>
			<defs>
				<path id="SVGID_1_" d="M25.1,0h286.8C325.8,0,337,11.2,337,25.1v269.8c0,13.9-11.2,25.1-25.1,25.1H25.1
					C11.2,320,0,308.8,0,294.9V25.1C0,11.2,11.2,0,25.1,0z"/>
			</defs>
			<clipPath id="SVGID_2_">
				<use xlink:href="#SVGID_1_"  style="overflow:visible;"/>
			</clipPath>
			<g class="st0">
				<g>
					<defs>
						<rect id="SVGID_3_" y="1" width="337" height="319"/>
					</defs>
					<clipPath id="SVGID_4_">
						<use xlink:href="#SVGID_3_"  style="overflow:visible;"/>
					</clipPath>
					<g class="st1">
						
							<image style="overflow:visible;enable-background:new    ;" width="942" height="559" xlink:href="CC136751.png"  transform="matrix(0.571 0 0 0.5674 -107.7709 1.9655)">
						</image>
					</g>
				</g>
				
					<linearGradient id="SVGID_5_" gradientUnits="userSpaceOnUse" x1="168.5" y1="-63.4932" x2="168.5" y2="379.2594" gradientTransform="matrix(1 0 0 -1 0 319.8898)">
					<stop  offset="0" style="stop-color:#196CDC"/>
					<stop  offset="0.1359" style="stop-color:#196CDC"/>
					<stop  offset="1" style="stop-color:#196CDC"/>
				</linearGradient>
				<rect y="0" class="st2" width="337" height="320"/>
				<path class="st3" d="M520.8,272.7c1.5,1.6,2.2,3.7,2.1,5.8v12.7h-5.3l0-13.2c0.1-0.8-0.2-1.7-0.7-2.4c-0.5-0.6-1.3-0.8-2.1-0.8
					h-2.6c-0.2,0.7-0.3,1.4-0.4,2.1c-0.1,0.7-0.1,1.4-0.1,2.1v5.9c0,1.2-0.2,2.4-0.7,3.5c-0.5,1-1.2,1.7-2.1,2.2
					c-1,0.5-2.2,0.8-3.3,0.8c-0.9,0-1.7-0.1-2.6-0.2v-4.1c0.5,0,0.9,0,1.1,0c1.7,0,2.5-0.9,2.5-2.6v-5c0-0.8,0.1-1.6,0.3-2.5
					c0.2-0.8,0.5-1.5,0.9-2.2h-3.2v-4.2h10.4C517.4,270.8,519.4,271.4,520.8,272.7z"/>
				<path class="st3" d="M529.2,275H526v-4.2h8.6v11.7h-5.4V275z"/>
				<path class="st3" d="M541.1,279.7c0.1-0.9,0.3-1.8,0.7-2.6c0.3-0.7,0.7-1.4,1.2-2c0.1-0.1,0.1-0.1,0.2-0.2l0-0.1
					c-0.5,0.1-1.1,0.2-1.6,0.4c-0.5,0.1-1.1,0.3-1.6,0.5l-1.1-3.9c1.5-0.5,3.1-0.9,4.6-1.2c1.7-0.3,3.3-0.4,5-0.5
					c3.1,0,5.5,0.8,7.1,2.4c1.6,1.6,2.4,3.9,2.5,7v11.6h-9v-4.2h3.6l0-8.2c0.1-1.1-0.2-2.2-0.8-3.2c-0.5-0.7-1.4-1.2-2.3-1.1
					c-0.9,0-1.7,0.4-2.3,1.1c-0.6,1-1,2.1-1,3.3l-1.2,12.2h-5.3L541.1,279.7z"/>
				<path class="st3" d="M574.2,282.2l4.6,6.6v2.4h-16.2v-4.2h9.3l-11-16.3h6l4.2,6.7l3.1-6.7h6L574.2,282.2z"/>
				<path class="st3" d="M600.2,270.8v11.7c0.1,1.8-0.4,3.5-1.2,5c-0.8,1.4-2,2.5-3.5,3.1c-1.6,0.7-3.4,1.1-5.2,1.1
					c-2.8,0-5.5-0.5-8.1-1.5l1.1-3.9c1.5,0.6,3.1,1,4.7,1.3c-0.4-0.4-0.8-0.8-1.1-1.3c-0.3-0.5-0.5-1-0.6-1.6l-3.2-13.9h5.4l3,14.5
					c0.1,0.7,0.4,1.4,0.7,2.1c0.8-0.3,1.6-0.9,2-1.7c0.5-0.9,0.7-1.8,0.7-2.8v-12H600.2z"/>
				<path class="st3" d="M630,272.7c1.5,1.6,2.2,3.7,2.1,5.8v12.7h-5.3l0-13.2c0.1-0.8-0.2-1.7-0.7-2.4c-0.5-0.6-1.3-0.8-2.1-0.8
					h-2.6c-0.2,0.7-0.3,1.4-0.4,2.1c-0.1,0.7-0.1,1.4-0.1,2.1v5.9c0,1.2-0.2,2.4-0.7,3.5c-0.5,1-1.2,1.7-2.1,2.2
					c-1,0.5-2.2,0.8-3.3,0.8c-0.9,0-1.7-0.1-2.6-0.2v-4.1c0.5,0,0.9,0,1.1,0c1.7,0,2.5-0.9,2.5-2.6v-5c0-0.8,0.1-1.6,0.3-2.5
					c0.2-0.8,0.5-1.5,0.9-2.2h-3.2v-4.2h10.4C626.5,270.8,628.6,271.4,630,272.7z"/>
				<path class="st3" d="M653,270.8v4.2h-3.6v16.3H644V275h-8.7v-4.2H653z"/>
				<path class="st3" d="M658.2,275H655v-4.2h8.6v11.7h-5.4V275z"/>
				<path class="st3" d="M670.1,279.7c0.1-0.9,0.3-1.8,0.7-2.6c0.3-0.7,0.7-1.4,1.2-2c0.1-0.1,0.1-0.1,0.2-0.2l0-0.1
					c-0.5,0.1-1.1,0.2-1.6,0.4c-0.5,0.1-1.1,0.3-1.6,0.5l-1.1-3.9c1.5-0.5,3.1-0.9,4.6-1.2c1.7-0.3,3.3-0.4,5-0.5
					c3.1,0,5.5,0.8,7.1,2.4c1.6,1.6,2.4,3.9,2.5,7v11.6h-9v-4.2h3.6l0-8.2c0.1-1.1-0.2-2.2-0.8-3.2c-0.5-0.7-1.4-1.2-2.3-1.1
					c-0.9,0-1.7,0.4-2.3,1.1c-0.6,1-1,2.1-1,3.3l-1.2,12.2h-5.3L670.1,279.7z"/>
				<path class="st3" d="M707.3,274.2l-6.8,17.1h-5.7l6.7-16.3h-11V265h5.4v5.8h11.4V274.2z"/>
			</g>
		</g>
		<path class="st3" d="M68,179.8h-5.4v-6.4l0.5-11.9l-6.5,18.3H53l-6.5-18.3l0.5,11.9v6.4h-5.4v-24.9h7l6.2,17.8l6.2-17.8h7
			L68,179.8z"/>
		<path class="st3" d="M72.3,165.5c0.7-1.4,1.7-2.6,3-3.3c3-1.6,6.5-1.6,9.5,0c1.3,0.8,2.4,2,3,3.3c0.7,1.5,1.1,3.2,1,4.9v0.4
			c0,1.7-0.3,3.3-1,4.8c-0.7,1.4-1.7,2.5-3,3.3c-3,1.6-6.5,1.6-9.5,0c-1.3-0.8-2.4-2-3-3.3c-0.7-1.5-1.1-3.2-1-4.8v-0.4
			C71.3,168.7,71.6,167,72.3,165.5z M77.3,174.5c0.6,1,1.7,1.5,2.8,1.4c1.1,0.1,2.2-0.5,2.8-1.4c0.6-1.2,0.9-2.5,0.9-3.8v-0.4
			c0.1-1.3-0.2-2.6-0.9-3.8c-0.6-1-1.7-1.5-2.8-1.5c-1.1-0.1-2.2,0.5-2.8,1.5c-0.6,1.2-0.9,2.5-0.9,3.8v0.4
			C76.4,172,76.7,173.4,77.3,174.5L77.3,174.5z"/>
		<path class="st3" d="M105.4,162.1c1.1,0.8,2,2,2.4,3.3c0.6,1.6,0.8,3.2,0.8,4.9v0.4c0,1.7-0.2,3.4-0.8,4.9
			c-0.5,1.3-1.3,2.5-2.4,3.3c-1.2,0.8-2.6,1.2-4,1.2c-1.9,0.1-3.6-0.8-4.7-2.3l-0.2,2h-4.6v-26.3H97v9.4c1.1-1.3,2.7-2,4.4-1.9
			C102.8,160.9,104.2,161.3,105.4,162.1z M103.4,170.3c0.1-1.3-0.2-2.6-0.7-3.8c-0.5-0.9-1.5-1.5-2.6-1.4c-1.3-0.1-2.6,0.6-3.1,1.8
			v7.2c0.5,1.2,1.8,1.9,3.1,1.8c1.1,0.1,2.1-0.4,2.6-1.4c0.5-1.2,0.8-2.6,0.7-3.9L103.4,170.3z"/>
		<path class="st3" d="M116.4,154.6c1.1,1,1.1,2.7,0,3.8c0,0,0,0,0,0c-1.2,1-3,1-4.2,0c-1.1-1-1.1-2.7,0-3.8c0,0,0,0,0,0
			C113.5,153.6,115.2,153.6,116.4,154.6z M111.8,179.8v-18.5h5.2v18.5H111.8z"/>
		<path class="st3" d="M121.2,179.8v-26.3h5.2v26.3H121.2z"/>
		<path class="st3" d="M146.6,172.2h-11.7c0.1,1.1,0.7,2,1.4,2.7c0.8,0.7,1.9,1.1,2.9,1c0.8,0,1.7-0.2,2.5-0.5
			c0.8-0.3,1.4-0.9,1.9-1.5l2.5,2.9c-0.7,1-1.7,1.8-2.8,2.4c-1.4,0.7-2.9,1-4.4,1c-1.7,0-3.4-0.4-4.9-1.2c-1.4-0.8-2.5-1.9-3.2-3.2
			c-0.8-1.4-1.1-2.9-1.1-4.5v-0.6c0-1.7,0.3-3.4,1-4.9c0.7-1.4,1.7-2.6,3-3.4c1.4-0.8,3-1.3,4.6-1.2c1.6,0,3.1,0.3,4.5,1.1
			c1.2,0.7,2.2,1.8,2.8,3.2c0.7,1.5,1,3.2,1,4.8L146.6,172.2z M141.5,168.3c0-0.9-0.3-1.7-0.8-2.4c-0.6-0.6-1.5-0.9-2.4-0.9
			c-0.9,0-1.7,0.3-2.3,1c-0.6,0.8-1,1.7-1.1,2.7h6.6V168.3z"/>
		<path class="st3" d="M174.4,175.4v4.3h-16.1v-24.9h5.4v20.6H174.4z"/>
		<path class="st3" d="M193.2,172.2h-11.7c0.1,1.1,0.7,2,1.4,2.7c0.8,0.7,1.9,1.1,2.9,1c0.8,0,1.7-0.2,2.5-0.5
			c0.8-0.3,1.4-0.9,1.9-1.5l2.5,2.9c-0.7,1-1.7,1.8-2.8,2.4c-1.4,0.7-2.9,1-4.4,1c-1.7,0-3.4-0.4-4.9-1.2c-1.4-0.8-2.5-1.9-3.2-3.2
			c-0.8-1.4-1.1-2.9-1.1-4.5v-0.6c0-1.7,0.3-3.4,1-4.9c0.7-1.4,1.7-2.6,3-3.4c1.4-0.8,3-1.3,4.6-1.2c1.6,0,3.1,0.3,4.5,1.1
			c1.2,0.7,2.2,1.8,2.8,3.2c0.7,1.5,1,3.2,1,4.8L193.2,172.2z M188.2,168.3c0-0.9-0.3-1.7-0.8-2.4c-0.6-0.6-1.5-0.9-2.4-0.9
			c-0.9,0-1.7,0.3-2.3,1c-0.6,0.8-1,1.7-1.1,2.7h6.6V168.3z"/>
		<path class="st3" d="M211.2,177.7c0.1,0.6,0.3,1.2,0.6,1.7v0.3h-5.2c-0.3-0.5-0.4-1.1-0.5-1.7c-1.2,1.3-2.9,2.1-4.6,2
			c-1.1,0-2.2-0.2-3.2-0.7c-0.9-0.4-1.7-1.1-2.3-2c-0.6-0.8-0.8-1.8-0.8-2.9c-0.1-1.8,0.7-3.5,2.2-4.5c1.4-1.1,3.6-1.6,6.4-1.6h2.1
			v-1c0-0.7-0.2-1.4-0.6-2c-0.5-0.5-1.2-0.8-1.9-0.7c-0.7,0-1.3,0.2-1.8,0.6c-0.5,0.4-0.7,1-0.7,1.6h-5.2c0-1.1,0.3-2.1,1-3
			c0.7-0.9,1.7-1.7,2.8-2.1c1.3-0.5,2.7-0.8,4.2-0.8c1.3,0,2.7,0.2,3.9,0.7c1.1,0.5,2,1.2,2.6,2.2c0.7,1.1,1,2.3,1,3.6v7.7
			C211,176.1,211,176.9,211.2,177.7z M204.6,175.7c0.5-0.3,0.9-0.7,1.2-1.2v-3.1h-2c-1-0.1-1.9,0.2-2.7,0.8c-0.6,0.5-0.9,1.3-0.9,2
			c0,0.5,0.2,1.1,0.6,1.4c0.5,0.4,1.1,0.6,1.7,0.5C203.3,176.2,204,176,204.6,175.7L204.6,175.7z"/>
		<path class="st3" d="M224.6,161c0.2,0,0.5,0.1,0.7,0.1l-0.1,5c-0.6-0.1-1.2-0.1-1.8-0.1c-1.8,0-3,0.6-3.6,1.8v11.9h-5.2v-18.5h4.9
			l0.2,2.2c0.4-0.8,1-1.4,1.7-1.9c0.7-0.4,1.5-0.7,2.4-0.7C224,160.9,224.3,161,224.6,161z"/>
		<path class="st3" d="M242.1,162.6c1,1.1,1.5,2.9,1.5,5.4v11.7h-5.2V168c0.1-0.8-0.2-1.7-0.7-2.3c-0.6-0.5-1.4-0.7-2.2-0.6
			c-0.6,0-1.2,0.1-1.8,0.4c-0.5,0.3-0.9,0.7-1.2,1.2v13h-5.2v-18.5h4.8l0.2,2.1c0.6-0.8,1.4-1.4,2.3-1.8c0.9-0.4,2-0.6,3-0.6
			C239.4,160.8,240.9,161.4,242.1,162.6z"/>
		<path class="st3" d="M252.1,154.6c1.1,1,1.1,2.7,0,3.8c0,0,0,0,0,0c-1.2,1-3,1-4.2,0c-1.1-1-1.1-2.7,0-3.8c0,0,0,0,0,0
			C249.2,153.6,250.9,153.6,252.1,154.6z M247.5,179.8v-18.5h5.2v18.5H247.5z"/>
		<path class="st3" d="M271.1,162.6c1,1.1,1.5,2.9,1.5,5.4v11.7h-5.2V168c0.1-0.8-0.2-1.7-0.7-2.3c-0.6-0.5-1.4-0.7-2.2-0.6
			c-0.6,0-1.2,0.1-1.8,0.4c-0.5,0.3-0.9,0.7-1.2,1.2v13h-5.2v-18.5h4.8l0.2,2.1c0.6-0.8,1.4-1.4,2.3-1.8c0.9-0.4,2-0.6,3-0.6
			C268.4,160.8,270,161.4,271.1,162.6z"/>
		<path class="st3" d="M292.6,161.3v17.8c0,1.5-0.3,3-1.1,4.3c-0.8,1.2-1.9,2.2-3.2,2.7c-1.5,0.6-3.1,1-4.7,0.9
			c-1.3,0-2.6-0.3-3.8-0.7c-1.2-0.4-2.2-1.1-3-2.1l2.2-3.2c0.6,0.6,1.2,1.1,2,1.5c0.8,0.4,1.6,0.5,2.4,0.5c1.1,0.1,2.2-0.3,3-1
			c0.7-0.8,1.1-1.8,1.1-2.9v-0.9c-1.1,1.3-2.7,2-4.4,1.9c-1.4,0-2.8-0.4-4-1.2c-1.2-0.8-2.1-2-2.6-3.3c-0.6-1.5-0.9-3.2-0.9-4.8
			v-0.4c0-1.7,0.3-3.4,0.9-4.9c0.5-1.3,1.4-2.5,2.6-3.3c1.2-0.8,2.6-1.2,4-1.2c1.8-0.1,3.5,0.7,4.7,2.1l0.2-1.7L292.6,161.3z
			 M287.4,174.3v-7.7c-0.6-1.1-1.8-1.7-3.1-1.6c-1.1,0-2.2,0.5-2.7,1.5c-0.7,1.2-1,2.5-0.9,3.8v0.4c-0.1,1.3,0.3,2.6,0.9,3.8
			c0.6,0.9,1.6,1.5,2.7,1.4C285.6,176,286.8,175.4,287.4,174.3z"/>
	</g>
</g>
</svg>
